<?xml version="1.0" standalone="no"?>
<!DOCTYPE svg PUBLIC "-//W3C//DTD SVG 20010904//EN"
 "http://www.w3.org/TR/2001/REC-SVG-20010904/DTD/svg10.dtd">
<svg version="1.0" xmlns="http://www.w3.org/2000/svg"
 width="2401.000000pt" height="2401.000000pt" viewBox="0 0 2401.000000 2401.000000"
 preserveAspectRatio="xMidYMid meet">
<metadata>
Created by potrace 1.11, written by Peter Selinger 2001-2013
</metadata>
<g transform="translate(0.000000,2401.000000) scale(0.100000,-0.100000)"
fill="#000000" stroke="none">
<path d="M11919 22526 c-1 -3 -2 -10 -3 -15 0 -5 -5 -13 -9 -18 -5 -4 -7 -2
-5 6 2 8 -5 17 -14 19 -10 2 -18 -2 -18 -8 0 -6 4 -8 10 -5 6 3 7 -1 3 -10 -4
-12 -8 -13 -13 -5 -6 9 -9 9 -14 1 -4 -6 -11 -9 -16 -6 -4 3 -13 -2 -20 -10
-9 -11 -16 -12 -30 -3 -10 7 -16 17 -12 23 3 5 -2 4 -11 -4 -9 -7 -17 -9 -17
-4 0 5 -7 10 -15 10 -10 0 -12 -4 -5 -12 6 -7 3 -11 -9 -11 -10 0 -17 5 -15
11 3 6 -6 11 -18 12 -16 2 -19 0 -10 -6 11 -7 10 -10 -3 -14 -9 -4 -14 -3 -11
1 2 4 1 14 -5 22 -7 12 -9 9 -9 -10 l-1 -25 -15 25 c-8 14 -13 18 -11 9 4 -12
-1 -16 -16 -15 -12 0 -25 6 -29 11 -5 6 -8 5 -8 -3 0 -7 -5 -10 -10 -7 -6 4
-7 11 -4 17 4 7 2 8 -5 4 -6 -4 -9 -12 -6 -17 4 -5 1 -9 -4 -9 -6 0 -11 5 -11
12 0 6 -7 3 -15 -8 -13 -16 -14 -16 -9 -1 3 9 3 17 -1 17 -4 0 -14 -8 -21 -17
-13 -17 -14 -17 -8 2 7 20 6 20 -8 1 -10 -13 -22 -17 -36 -13 -12 3 -25 0 -29
-5 -3 -6 -2 -8 4 -5 5 3 10 0 10 -7 0 -7 -6 -13 -13 -13 -7 0 -11 4 -8 9 5 7
-20 12 -29 6 -2 -2 -12 4 -22 12 -11 9 -16 10 -11 3 4 -8 1 -13 -9 -13 -10 0
-13 -5 -9 -12 5 -8 0 -7 -11 2 -17 14 -18 13 -12 -2 5 -15 2 -16 -18 -8 -20 7
-25 6 -25 -5 0 -8 -5 -15 -11 -15 -5 0 -7 5 -3 12 5 8 2 9 -11 4 -16 -6 -16
-4 -4 10 13 16 12 16 -10 5 -19 -11 -25 -11 -32 0 -6 10 -9 8 -9 -8 0 -13 -5
-23 -11 -23 -5 0 -8 4 -4 9 6 11 -31 25 -44 16 -5 -3 -13 -1 -16 5 -5 8 -11 8
-19 1 -7 -6 -17 -7 -21 -3 -5 4 -5 1 -1 -6 4 -7 13 -9 19 -6 7 4 8 3 4 -2 -5
-5 -18 -9 -30 -9 -28 -1 -49 -14 -42 -26 4 -5 -1 -12 -9 -15 -9 -3 -13 -11 -9
-18 4 -6 -1 -5 -11 3 -15 13 -19 13 -27 0 -5 -9 -9 -10 -9 -2 0 6 -9 11 -19
10 -11 0 -17 -5 -15 -9 3 -5 10 -5 16 -2 7 4 8 2 4 -4 -7 -12 -36 -5 -36 9 0
5 -5 9 -11 9 -6 0 -9 -6 -6 -14 4 -11 -1 -13 -19 -10 -13 2 -24 0 -24 -6 0 -6
5 -8 10 -5 15 9 12 -4 -4 -21 -17 -17 -30 -19 -20 -2 4 7 3 8 -5 4 -6 -4 -8
-12 -5 -18 5 -7 0 -9 -14 -6 -12 3 -21 3 -20 -1 2 -17 -3 -31 -12 -31 -5 0 -7
8 -4 18 3 9 -2 6 -11 -8 -9 -16 -14 -19 -13 -8 2 9 -1 16 -7 15 -5 -1 -9 -6
-7 -11 2 -5 -5 -3 -14 5 -13 10 -16 11 -10 1 5 -9 3 -13 -5 -11 -17 3 -51 -11
-62 -25 -6 -7 -7 -4 -3 6 6 19 -9 34 -18 19 -3 -5 -19 -8 -36 -7 -19 1 -30 -3
-30 -11 0 -7 -5 -13 -11 -13 -5 0 -7 6 -3 13 5 9 3 9 -7 -1 -12 -11 -12 -14 1
-23 11 -7 8 -8 -12 -5 -26 4 -27 3 -16 -17 11 -21 10 -21 -7 -7 -17 14 -18 13
-12 -2 4 -12 1 -16 -13 -13 -11 2 -23 -1 -26 -7 -4 -6 -3 -8 3 -5 6 4 13 0 16
-7 4 -10 0 -14 -12 -11 -14 2 -17 -1 -14 -14 2 -10 -4 -24 -14 -32 -17 -13
-17 -13 -4 4 8 9 12 20 9 23 -3 2 -15 -15 -27 -38 -12 -24 -20 -35 -17 -26 3
9 -2 19 -10 22 -9 3 -12 1 -9 -4 3 -6 0 -10 -9 -10 -8 0 -17 6 -19 13 -3 6 -6
3 -6 -7 -1 -20 -1 -20 -16 0 -9 11 -13 13 -10 4 4 -11 -2 -15 -19 -15 -20 0
-22 3 -13 14 10 12 9 12 -11 2 -12 -7 -20 -17 -16 -23 4 -7 3 -8 -4 -4 -6 4
-10 12 -8 19 1 7 1 9 -1 4 -3 -4 -10 -4 -16 0 -6 4 -8 0 -4 -10 10 -25 -8 -20
-22 6 l-12 22 5 -23 c3 -16 -2 -25 -17 -33 -19 -9 -20 -8 -6 3 13 11 3 13 -67
13 -45 0 -80 -3 -77 -7 5 -9 1 -10 -40 -12 -16 -1 -33 -8 -38 -16 -8 -11 -9
-9 -4 10 5 23 5 23 -8 8 -8 -10 -18 -14 -22 -10 -5 4 -5 -2 -1 -12 5 -16 4
-17 -9 -6 -12 10 -15 10 -15 -2 0 -8 -10 -24 -23 -36 -18 -17 -26 -19 -36 -9
-10 10 -10 7 -2 -15 6 -15 7 -30 2 -32 -13 -8 -20 4 -15 22 5 14 4 14 -6 -1
-6 -9 -8 -23 -4 -30 6 -9 4 -9 -8 1 -11 9 -18 10 -23 2 -3 -6 -10 -8 -15 -5
-5 3 -11 1 -14 -4 -7 -11 13 -9 32 2 17 11 15 -1 -3 -19 -8 -9 -15 -11 -15 -6
0 5 -6 9 -12 9 -7 0 -23 3 -35 7 -14 5 -23 3 -23 -3 0 -6 5 -11 12 -11 6 0 9
-2 6 -5 -9 -10 -38 7 -31 18 3 6 1 7 -6 3 -9 -6 -9 -12 1 -24 12 -15 11 -15
-13 0 -16 10 -31 13 -39 8 -8 -5 -18 -6 -24 -3 -5 3 -6 1 -2 -5 5 -9 13 -9 29
-1 21 10 21 9 3 -5 -13 -11 -24 -12 -36 -6 -14 8 -19 5 -24 -15 -4 -17 -11
-23 -23 -18 -12 5 -14 3 -8 -8 8 -12 6 -12 -8 0 -18 14 -24 2 -8 -14 6 -6 1
-11 -14 -11 -15 -1 -22 2 -18 9 3 6 1 7 -6 3 -9 -6 -9 -11 1 -24 7 -9 8 -13 2
-9 -22 13 -65 16 -58 4 3 -7 -1 -4 -8 5 -13 15 -15 15 -28 -5 -12 -21 -12 -21
6 -7 18 14 18 14 5 -3 -10 -13 -17 -15 -27 -6 -8 6 -11 16 -7 23 4 6 -1 5 -10
-3 -9 -7 -17 -19 -17 -25 0 -6 5 -4 10 4 6 9 10 10 10 3 0 -20 -20 -26 -26 -8
-6 13 -8 14 -15 3 -7 -10 -9 -10 -9 0 0 6 -5 12 -11 12 -5 0 -7 -5 -3 -12 5
-8 2 -9 -10 -5 -13 5 -17 3 -13 -7 8 -20 -4 -28 -20 -14 -10 8 -12 8 -8 -4 3
-8 -2 -21 -12 -29 -16 -13 -17 -12 -5 3 11 13 11 18 0 24 -7 4 -10 4 -6 -1 4
-4 3 -14 -3 -21 -6 -8 -8 -21 -5 -30 5 -14 4 -15 -9 -4 -15 13 -20 5 -16 -27
1 -6 -3 -14 -9 -18 -6 -4 -7 1 -3 11 4 12 2 15 -8 12 -8 -3 -13 -11 -11 -17 1
-7 -3 -11 -10 -10 -21 3 -48 -12 -41 -24 4 -6 -2 -8 -16 -4 -17 4 -20 2 -12
-7 14 -16 -18 -18 -38 -2 -11 8 -13 8 -8 -1 4 -6 3 -14 -3 -18 -7 -4 -7 -12 0
-25 7 -13 7 -21 -2 -26 -6 -4 -8 -3 -4 4 3 6 3 13 -2 16 -4 2 -9 -7 -10 -20
-1 -17 2 -23 10 -18 7 4 8 3 4 -5 -4 -6 -12 -9 -17 -5 -6 3 -9 -2 -7 -11 2
-13 -4 -19 -19 -20 -13 -1 -26 -5 -30 -10 -5 -4 0 -5 10 -2 11 4 16 3 12 -3
-3 -6 -12 -10 -20 -10 -8 0 -17 -5 -21 -12 -4 -7 -3 -8 4 -4 8 5 10 2 6 -8 -5
-14 -8 -14 -21 -1 -19 20 -23 19 -18 -4 3 -14 -1 -18 -11 -14 -10 4 -17 -2
-21 -16 -3 -11 -9 -19 -13 -16 -4 3 -11 -2 -14 -11 -3 -8 -10 -12 -16 -9 -6 3
-7 -1 -4 -9 4 -10 1 -16 -10 -16 -21 0 -38 -34 -24 -48 9 -9 6 -10 -10 -7 -19
3 -20 1 -11 -21 13 -36 11 -41 -6 -18 -11 15 -14 16 -15 4 0 -9 6 -22 13 -30
6 -8 2 -6 -11 5 -19 16 -22 16 -17 2 5 -12 2 -15 -14 -12 -12 2 -20 1 -17 -3
6 -11 -21 -45 -31 -39 -5 3 -10 -4 -10 -16 -2 -17 0 -19 7 -7 5 8 10 10 10 4
0 -18 -12 -24 -26 -13 -10 8 -12 6 -9 -9 2 -15 -1 -19 -15 -15 -10 3 -21 -1
-25 -8 -5 -7 -4 -10 2 -6 6 4 16 0 22 -7 10 -12 8 -13 -8 -9 -10 3 -28 0 -38
-7 -16 -10 -15 -10 7 -6 24 6 24 5 -2 -7 -23 -11 -26 -16 -15 -26 10 -11 8
-12 -9 -3 -19 10 -21 9 -18 -13 1 -14 -2 -23 -7 -19 -5 3 -12 -2 -15 -10 -3
-9 -11 -13 -16 -10 -6 4 -1 15 13 26 20 16 20 18 3 9 -11 -5 -27 -18 -35 -27
-8 -10 -9 -15 -3 -11 7 4 14 0 17 -8 5 -11 1 -12 -18 -5 -14 5 -24 6 -24 2 3
-19 -2 -33 -10 -27 -6 3 -8 -7 -5 -22 3 -19 2 -24 -5 -14 -5 7 -14 10 -21 6
-9 -6 -9 -10 1 -17 10 -7 8 -8 -9 -5 -18 4 -21 2 -13 -7 7 -9 7 -16 -2 -26
-10 -10 -8 -12 7 -6 15 5 17 4 7 -8 -6 -8 -10 -20 -9 -27 2 -7 -3 -13 -9 -14
-7 0 -13 -4 -14 -10 -1 -14 -27 -27 -39 -20 -6 3 -10 -3 -10 -14 0 -14 -5 -19
-20 -16 -21 4 -28 -11 -8 -17 7 -3 2 -7 -10 -10 -12 -4 -20 -2 -17 2 3 5 2 11
-3 14 -4 2 -9 -4 -9 -15 -1 -10 4 -19 10 -19 8 0 7 -4 -2 -9 -8 -5 -20 -7 -27
-4 -8 3 -11 -5 -10 -26 2 -25 -1 -28 -14 -21 -12 6 -17 5 -17 -5 0 -8 4 -12 8
-10 4 3 9 -1 12 -9 4 -11 -2 -13 -26 -10 -18 2 -27 0 -22 -4 17 -12 39 -43 29
-41 -5 1 -20 1 -34 0 -20 -1 -22 -3 -10 -11 13 -8 12 -10 -3 -10 -15 0 -16 -3
-6 -22 9 -19 9 -21 -2 -10 -20 19 -31 14 -23 -10 6 -20 5 -21 -9 -10 -12 10
-17 10 -23 1 -4 -8 -3 -9 4 -5 8 5 11 -1 10 -18 -1 -13 -6 -22 -10 -20 -5 3
-6 10 -3 15 3 5 -1 6 -9 3 -9 -3 -16 -10 -16 -16 0 -5 4 -7 9 -4 5 3 12 -1 15
-10 3 -8 2 -12 -4 -9 -9 6 -14 -7 -11 -27 0 -4 -5 -5 -13 -2 -18 7 -46 -33
-39 -54 5 -11 3 -13 -8 -7 -12 7 -12 6 -1 -7 10 -12 10 -18 1 -23 -8 -6 -7
-10 2 -17 11 -7 9 -8 -5 -4 -16 5 -17 2 -12 -21 l6 -28 -16 25 c-9 15 -13 18
-10 6 4 -13 2 -17 -7 -13 -10 4 -13 -2 -11 -18 2 -24 -16 -48 -32 -43 -5 2 -9
-1 -9 -7 0 -5 3 -9 6 -8 3 1 6 -4 6 -12 0 -8 -5 -11 -10 -8 -7 4 -8 -1 -3 -12
5 -14 4 -15 -7 -7 -10 8 -13 7 -14 -6 -2 -19 -10 -57 -14 -57 -1 0 -2 -12 -3
-27 -1 -15 -6 -31 -10 -35 -5 -4 -6 -2 -2 5 4 6 2 12 -3 12 -6 0 -11 -5 -11
-11 0 -5 -4 -7 -10 -4 -5 3 -7 0 -4 -9 3 -8 13 -12 22 -10 15 5 14 4 -1 -6 -9
-6 -21 -9 -26 -5 -11 6 -9 -14 3 -34 7 -11 5 -13 -10 -7 -15 6 -17 5 -6 -6 10
-10 8 -15 -10 -26 l-23 -13 25 5 c24 5 24 4 6 -9 -14 -11 -16 -15 -5 -15 9 -1
6 -5 -7 -13 -13 -7 -20 -21 -19 -34 1 -17 -4 -23 -19 -23 -18 0 -19 -2 -6 -11
11 -8 12 -12 3 -16 -10 -3 -10 -10 -1 -26 10 -21 10 -21 -7 -7 -17 14 -18 14
-6 -9 7 -13 9 -21 4 -18 -5 3 -15 -4 -23 -16 -12 -21 -12 -21 5 -7 17 14 17
14 7 -6 -6 -12 -8 -24 -5 -28 3 -3 -1 -6 -11 -6 -14 0 -15 -3 -5 -22 11 -21
11 -22 -4 -9 -12 9 -17 10 -17 2 0 -7 -6 -9 -12 -5 -10 6 -10 4 0 -7 17 -19
15 -32 -5 -25 -15 5 -15 4 1 -9 14 -11 16 -15 5 -15 -9 0 -10 -3 -3 -8 15 -10
13 -51 -3 -45 -11 4 -11 8 -1 22 11 14 11 14 -4 3 -10 -8 -15 -22 -12 -35 12
-59 12 -67 3 -67 -6 0 -8 -4 -4 -9 3 -6 -3 -15 -12 -21 -15 -9 -14 -10 7 -4
23 6 24 6 10 -11 -14 -17 -13 -18 3 -12 14 5 16 3 8 -12 -6 -10 -8 -21 -4 -24
3 -4 -2 -9 -11 -13 -9 -3 -13 -11 -9 -17 4 -6 0 -8 -8 -5 -12 5 -14 -1 -11
-23 3 -18 0 -29 -7 -29 -7 0 -9 -4 -6 -10 3 -5 1 -10 -5 -10 -6 0 -8 -5 -4
-11 3 -6 0 -15 -7 -20 -12 -8 -12 -11 1 -20 12 -9 11 -10 -7 -6 -12 3 -22 2
-21 -2 2 -19 -3 -31 -12 -26 -5 3 -10 1 -10 -4 0 -6 6 -11 13 -11 8 0 7 -3 -3
-9 -8 -6 -18 -7 -24 -4 -5 3 -6 1 -2 -5 4 -6 14 -9 24 -6 13 5 14 4 3 -4 -8
-6 -11 -18 -7 -33 l7 -24 -14 24 c-10 17 -16 20 -19 10 -8 -23 3 -59 16 -52 6
4 6 0 -2 -9 -7 -9 -11 -22 -10 -29 2 -8 -3 -13 -9 -12 -7 2 -13 -5 -13 -15 0
-10 -6 -24 -12 -31 -8 -9 -9 -12 -1 -7 21 12 7 -27 -17 -46 -25 -20 -38 -54
-17 -41 7 3 3 -4 -8 -17 -11 -13 -14 -20 -7 -16 6 4 12 2 12 -3 0 -6 -8 -11
-17 -11 -15 0 -16 -2 -3 -10 13 -8 13 -11 1 -22 -11 -11 -13 -11 -6 1 5 9 4
12 -3 7 -9 -5 -9 -13 -1 -28 8 -15 8 -19 0 -14 -6 4 -11 2 -11 -5 0 -8 -5 -7
-17 2 -14 12 -14 10 2 -14 15 -24 16 -27 1 -21 -21 8 -21 -5 2 -22 16 -13 16
-14 0 -8 -19 7 -25 -11 -8 -21 8 -5 7 -11 -1 -21 -6 -8 -9 -23 -6 -34 3 -11 1
-17 -4 -14 -13 7 -40 -16 -33 -27 3 -5 9 -7 14 -4 5 3 12 0 16 -6 4 -7 3 -10
-2 -6 -5 3 -14 -6 -21 -19 -8 -17 -8 -26 -1 -31 7 -4 8 -1 3 7 -5 9 -4 11 4 6
6 -4 9 -12 5 -17 -3 -5 -10 -6 -16 -3 -7 5 -9 1 -5 -9 3 -9 3 -16 -1 -16 -19
3 -25 -2 -12 -11 10 -6 11 -10 3 -10 -7 0 -13 -9 -13 -21 0 -11 -4 -18 -9 -15
-5 4 -8 -2 -6 -11 1 -10 8 -17 15 -15 6 1 9 -2 5 -8 -4 -6 -1 -18 7 -27 11
-14 10 -15 -12 -9 -17 5 -21 4 -11 -2 11 -8 11 -11 0 -16 -8 -3 -3 -4 11 -2
l25 5 -22 -16 c-24 -16 -30 -33 -12 -33 5 0 7 5 4 10 -3 6 -1 10 5 10 7 0 10
-6 7 -12 -2 -7 0 -21 5 -32 8 -14 7 -17 -4 -13 -7 2 -12 10 -10 16 1 7 -2 10
-7 7 -14 -9 -5 -41 10 -38 8 2 11 0 7 -4 -4 -4 -2 -14 5 -23 10 -14 10 -14 -5
-3 -12 10 -18 10 -24 1 -4 -8 -3 -9 4 -5 9 5 12 -7 12 -39 0 -32 3 -44 12 -39
7 4 8 3 4 -4 -4 -7 -14 -12 -23 -12 -11 0 -9 -5 8 -18 15 -13 19 -21 10 -26
-7 -4 -10 -2 -9 4 2 7 -5 14 -16 15 -12 3 -15 0 -9 -6 12 -12 4 -61 -8 -53 -5
3 -9 0 -9 -5 0 -6 6 -11 13 -12 6 0 3 -4 -8 -9 -16 -7 -17 -9 -3 -9 9 -1 20
-6 24 -13 4 -7 3 -8 -4 -4 -7 4 -12 2 -12 -4 0 -6 -5 -8 -12 -4 -7 4 -8 3 -4
-5 4 -6 0 -14 -9 -17 -13 -5 -12 -9 7 -27 17 -15 18 -18 6 -14 -14 5 -18 1
-18 -19 0 -17 -4 -23 -12 -18 -8 5 -7 0 2 -11 14 -17 13 -18 -5 -12 -20 7 -20
7 -1 -8 18 -14 15 -20 -7 -16 -5 1 -6 -3 -2 -9 3 -6 12 -7 18 -3 7 4 6 0 -2
-10 -7 -9 -10 -17 -6 -17 4 0 2 -7 -5 -15 -10 -12 -10 -19 -2 -27 7 -7 12 -21
12 -31 0 -12 5 -17 13 -14 8 3 14 -1 14 -9 0 -7 -3 -11 -7 -9 -3 2 -6 -5 -6
-15 0 -10 3 -18 6 -18 18 2 27 -4 27 -17 0 -8 -4 -15 -8 -15 -15 0 -2 -34 17
-42 16 -7 16 -8 -3 -4 -13 2 -23 0 -23 -5 0 -5 5 -9 10 -9 6 0 10 -6 10 -14 0
-8 3 -16 8 -19 4 -2 2 -3 -4 -1 -6 1 -11 -4 -11 -12 0 -8 6 -13 14 -10 7 3 13
1 13 -5 0 -6 5 -7 12 -3 7 4 8 3 4 -4 -4 -6 -12 -10 -19 -8 -7 1 -9 1 -4 -1 4
-3 5 -8 2 -12 -2 -5 7 -7 20 -6 14 2 23 -2 22 -8 -1 -7 5 -10 13 -9 8 2 12 0
8 -4 -4 -4 -2 -14 5 -22 6 -9 7 -13 1 -9 -6 3 -11 0 -11 -7 0 -8 8 -11 19 -8
10 2 18 -1 18 -7 0 -7 -6 -9 -12 -6 -7 4 -5 0 5 -8 18 -15 23 -47 7 -47 -5 0
-7 7 -4 15 4 8 2 15 -4 15 -14 0 -8 -33 6 -38 15 -5 16 -32 1 -32 -5 0 -7 5
-3 12 5 7 3 8 -6 3 -10 -6 -10 -11 3 -20 19 -14 23 -30 6 -19 -7 4 -10 1 -7
-7 3 -8 14 -13 24 -11 17 2 17 1 2 -8 -11 -7 -15 -19 -12 -38 3 -18 2 -23 -5
-13 -6 9 -8 1 -7 -25 2 -28 6 -38 16 -36 10 2 8 -4 -5 -19 l-20 -22 25 7 c14
3 19 3 13 0 -10 -4 -10 -11 -1 -27 l11 -22 -23 20 -23 20 14 -22 c8 -13 18
-23 24 -23 5 0 3 -5 -5 -10 -10 -6 -11 -10 -2 -10 6 0 12 -5 12 -11 0 -5 -5
-7 -10 -4 -12 8 -9 -17 3 -26 5 -3 10 -12 11 -20 2 -8 6 -22 11 -31 4 -10 5
-25 1 -33 -3 -8 0 -15 6 -15 19 0 38 -33 26 -47 -7 -9 -7 -13 1 -13 8 0 6 -7
-5 -17 -12 -12 -13 -18 -5 -21 8 -3 5 -10 -8 -19 -17 -11 -19 -18 -11 -34 8
-14 8 -19 -2 -17 -6 2 -12 -4 -13 -12 0 -8 -8 -14 -17 -14 -11 1 -15 -6 -14
-27 1 -16 0 -26 -2 -24 -3 3 -11 -3 -19 -13 -13 -15 -13 -15 -4 5 16 32 13 41
-5 15 -9 -13 -14 -29 -11 -35 3 -8 -4 -13 -17 -14 -11 0 -15 1 -8 4 6 3 12 9
12 15 0 6 -6 5 -15 -2 -11 -9 -12 -16 -4 -26 8 -10 6 -12 -10 -9 -15 3 -18 0
-14 -12 4 -11 2 -14 -5 -9 -7 4 -12 1 -12 -10 0 -14 -2 -15 -17 -3 -15 13 -15
12 -4 -9 7 -13 10 -26 7 -30 -3 -3 -6 0 -6 6 0 7 -5 12 -11 12 -6 0 -9 -6 -6
-14 4 -10 0 -14 -12 -11 -12 2 -18 -2 -17 -13 0 -9 -4 -17 -11 -17 -6 0 -15
-4 -20 -9 -5 -5 -2 -6 6 -1 9 5 12 3 9 -6 -3 -8 -10 -13 -16 -12 -5 1 -8 -7
-5 -17 3 -11 -1 -28 -8 -37 -8 -9 -9 -14 -3 -10 7 4 17 0 24 -8 11 -13 10 -14
-3 -10 -8 4 -18 1 -23 -6 -4 -8 -3 -10 4 -5 7 4 12 1 12 -8 0 -8 -3 -16 -7
-19 -5 -2 -3 -3 3 -1 15 3 8 -77 -7 -87 -7 -4 -4 -9 7 -13 16 -6 16 -8 -2 -22
-10 -9 -13 -13 -6 -9 7 4 13 0 13 -9 1 -9 2 -22 3 -28 1 -7 -2 -21 -7 -32 -8
-15 -11 -16 -19 -5 -8 11 -9 10 -4 -3 3 -10 1 -20 -4 -23 -7 -4 -7 -13 0 -24
6 -12 5 -22 -3 -31 -8 -8 -8 -11 -1 -7 7 4 14 -3 16 -18 3 -13 2 -22 -3 -20
-4 3 -10 1 -13 -4 -4 -5 -2 -12 4 -16 6 -4 7 -11 4 -17 -5 -8 -1 -9 12 -5 15
6 13 3 -5 -11 -14 -12 -20 -22 -13 -26 6 -3 9 -17 7 -31 -1 -15 4 -30 14 -36
12 -8 10 -8 -9 -3 -21 6 -23 5 -13 -7 6 -8 10 -33 9 -56 -2 -25 1 -40 8 -39 6
2 7 1 3 -2 -4 -2 -2 -11 5 -20 10 -14 10 -15 -2 -4 -8 6 -18 12 -23 12 -5 0
-5 -6 1 -12 11 -14 11 -82 0 -93 -4 -4 -3 -17 2 -30 6 -15 4 -27 -3 -36 -10
-11 -9 -11 5 0 14 11 16 9 11 -11 -3 -13 -10 -29 -16 -35 -9 -13 -8 -14 12
-17 5 0 13 -5 18 -10 4 -5 3 -6 -4 -2 -6 3 -14 2 -18 -4 -3 -5 0 -10 7 -10 8
0 6 -5 -5 -11 -12 -7 -15 -15 -9 -22 5 -7 8 -22 7 -34 -1 -11 3 -20 9 -19 6 2
8 1 3 -1 -4 -3 -5 -9 -2 -14 4 -5 -1 -6 -9 -3 -14 5 -14 3 -1 -22 7 -15 11
-32 7 -38 -4 -6 -7 -22 -7 -36 0 -14 -3 -30 -7 -36 -4 -6 -1 -11 7 -11 8 0 11
5 8 10 -4 6 -1 7 7 2 10 -6 7 -13 -11 -27 -13 -11 -19 -17 -13 -14 16 8 24
-27 11 -49 -7 -13 -6 -16 3 -10 8 5 11 3 8 -6 -3 -8 -11 -13 -17 -11 -8 1 -9
-2 -5 -10 5 -7 9 -19 11 -27 1 -8 7 -17 13 -21 6 -4 12 -13 13 -21 2 -8 6 -20
10 -26 6 -9 3 -11 -8 -7 -11 5 -14 2 -9 -12 4 -11 11 -25 17 -31 7 -9 5 -13
-6 -13 -21 0 -31 -17 -16 -26 8 -5 9 -3 4 6 -6 9 -4 11 5 5 10 -6 10 -10 -3
-20 -14 -10 -14 -12 2 -22 20 -12 24 -44 5 -36 -6 2 -15 -1 -20 -8 -4 -7 -3
-10 2 -6 6 3 16 -3 23 -15 11 -18 10 -19 -11 -14 -13 3 -17 3 -10 0 6 -3 12
-13 12 -23 0 -9 5 -22 12 -29 12 -12 10 -13 -12 -16 -10 -1 -11 -12 -3 -33 3
-7 9 -11 13 -8 4 2 7 -3 7 -13 0 -35 3 -43 15 -36 7 5 8 3 3 -6 -6 -10 -11 -9
-22 5 -7 11 -13 14 -13 8 0 -12 35 -45 41 -39 2 2 4 -6 4 -19 0 -13 -3 -21 -7
-19 -4 2 -9 0 -13 -6 -3 -5 0 -10 7 -10 9 0 9 -3 -2 -10 -10 -6 -11 -10 -2
-10 6 0 12 -5 12 -11 0 -5 -4 -8 -9 -4 -5 3 -12 1 -15 -4 -4 -5 -1 -13 5 -17
8 -5 9 -3 4 6 -5 9 -4 11 4 6 9 -6 9 -11 -1 -24 -11 -13 -11 -15 2 -7 12 6 12
5 3 -5 -9 -10 -7 -17 7 -33 20 -20 18 -37 -3 -37 -8 0 -8 3 1 9 11 6 10 10 -1
19 -11 9 -13 7 -12 -10 1 -21 32 -40 48 -31 14 8 7 -5 -10 -18 -14 -12 -16
-12 -8 0 5 10 4 12 -3 7 -19 -12 -14 -26 11 -27 12 0 16 -3 10 -6 -16 -6 -17
-33 -1 -33 6 0 8 -3 5 -7 -4 -3 -1 -13 6 -21 9 -13 9 -14 0 -8 -8 4 -13 2 -13
-4 0 -6 -5 -8 -11 -4 -8 4 -8 0 0 -15 7 -11 14 -21 17 -21 3 0 2 5 -1 10 -3 6
-1 10 4 10 6 0 11 -3 12 -7 4 -41 12 -69 21 -74 7 -4 5 -9 -3 -13 -8 -3 -3 -4
11 -2 l25 5 -24 -18 c-23 -18 -23 -19 -5 -30 19 -11 19 -11 0 -26 -19 -15 -19
-15 3 -15 15 0 21 -5 18 -13 -3 -8 -1 -20 5 -28 8 -11 8 -9 4 6 -6 19 -5 19 7
3 8 -10 18 -14 22 -10 5 4 4 0 -1 -8 -12 -21 -14 -39 -4 -45 5 -3 7 4 5 15 -2
12 1 20 10 20 8 0 12 -8 10 -20 -2 -11 1 -23 7 -26 7 -5 8 -2 3 6 -5 8 -4 11
2 7 6 -4 10 -28 10 -54 0 -43 2 -48 21 -47 17 0 19 -2 11 -13 -9 -10 -8 -13 1
-13 9 0 9 -4 -1 -17 -13 -15 -12 -15 8 -5 27 15 41 -2 16 -18 -16 -10 -16 -10
4 -5 12 3 25 1 29 -6 4 -7 3 -9 -3 -6 -5 3 -10 0 -10 -8 0 -11 5 -12 20 -3 14
7 17 7 13 -1 -4 -7 1 -11 13 -11 12 0 21 -5 21 -11 0 -5 -4 -7 -10 -4 -16 10
-11 -1 7 -16 11 -10 14 -10 9 -1 -12 20 4 14 23 -9 14 -18 21 -20 39 -10 26
14 32 14 32 0 0 -5 -5 -7 -12 -3 -7 4 -8 3 -4 -4 4 -6 13 -9 21 -5 9 3 15 -1
15 -8 0 -11 3 -11 10 1 8 13 10 12 10 -2 0 -10 -5 -18 -12 -18 -6 0 -8 -3 -5
-6 4 -4 13 -1 22 6 11 9 15 9 15 1 0 -7 4 -10 9 -6 6 3 14 -3 20 -12 10 -17
10 -17 11 0 0 10 5 15 10 12 6 -4 8 -16 5 -28 -5 -20 -4 -19 10 3 15 23 16 23
12 3 -3 -15 -1 -20 9 -16 8 3 11 10 7 17 -3 6 4 2 16 -8 24 -21 100 -24 112
-5 4 6 9 4 13 -7 3 -9 9 -14 12 -11 10 9 43 -25 37 -39 -3 -9 3 -14 18 -14 22
0 22 -1 4 -13 -13 -10 -15 -16 -6 -21 6 -4 9 -12 6 -17 -4 -5 -1 -9 5 -9 6 0
8 -5 5 -10 -4 -6 -11 -7 -17 -4 -7 5 -8 2 -4 -5 5 -7 15 -10 25 -7 12 5 11 2
-3 -9 -11 -8 -15 -15 -8 -15 7 0 10 -12 8 -29 -2 -19 1 -28 8 -25 7 3 12 -6
13 -18 2 -18 0 -19 -7 -8 -7 11 -9 10 -7 -8 1 -15 6 -21 17 -17 9 3 8 -1 -4
-10 -12 -9 -15 -15 -7 -15 11 0 11 -3 1 -15 -15 -18 0 -20 20 -2 12 10 12 9 2
-5 -7 -9 -9 -18 -5 -20 4 -3 3 -3 -4 -2 -7 2 -15 -2 -19 -8 -5 -7 -2 -8 6 -3
10 6 12 4 7 -9 -5 -14 -3 -15 13 -6 17 9 18 7 14 -17 -3 -15 -10 -31 -16 -34
-6 -4 -2 -10 10 -14 12 -3 21 -11 19 -18 -1 -6 3 -11 10 -12 6 0 15 -4 20 -8
4 -5 4 -8 -2 -7 -5 1 -17 2 -25 1 -13 -1 -13 -3 -1 -10 8 -5 21 -7 30 -4 10 3
12 1 6 -4 -16 -13 -19 -57 -3 -51 9 4 13 -4 13 -27 0 -28 -2 -31 -14 -22 -12
10 -13 9 -6 -3 13 -21 15 -40 4 -40 -5 0 -4 -9 3 -19 7 -11 15 -18 19 -15 12
7 4 -23 -9 -39 -11 -12 -11 -15 0 -13 7 1 20 6 28 11 13 7 13 6 2 -7 -9 -12
-10 -18 -2 -23 8 -5 6 -13 -5 -25 -12 -14 -13 -20 -4 -26 8 -5 10 -3 4 7 -7
12 -5 12 6 1 12 -11 12 -14 -1 -22 -12 -8 -10 -10 10 -11 16 -1 19 -3 8 -6
-21 -5 -12 -33 11 -34 12 0 12 -2 -4 -9 -11 -5 -14 -9 -6 -9 11 -1 11 -4 0
-18 -10 -11 -10 -14 -1 -9 8 5 12 -1 12 -19 0 -17 4 -24 12 -19 6 4 8 3 4 -4
-3 -5 0 -13 6 -15 9 -4 8 -6 -2 -6 -9 -1 -20 2 -26 7 -5 4 -1 -1 9 -10 19 -17
19 -18 1 -19 -17 0 -16 -1 2 -9 12 -5 25 -14 30 -21 4 -7 3 -10 -2 -6 -6 3
-16 2 -24 -4 -13 -7 -12 -9 2 -9 9 0 20 -5 24 -12 4 -7 3 -8 -4 -4 -7 4 -12 1
-12 -9 0 -9 5 -13 10 -10 6 3 10 0 10 -9 0 -8 -6 -17 -12 -19 -10 -4 -10 -6 0
-6 7 -1 10 -5 7 -11 -4 -6 1 -7 12 -3 16 6 17 5 3 -12 -14 -17 -13 -17 10 -12
14 4 19 4 12 1 -6 -3 -9 -11 -6 -16 4 -6 2 -8 -4 -4 -7 4 -8 -3 -2 -23 7 -25
6 -29 -8 -24 -15 4 -15 3 -2 -6 8 -6 11 -11 6 -11 -5 0 -3 -7 4 -15 7 -8 17
-12 23 -8 6 3 7 1 3 -5 -4 -6 -14 -8 -23 -5 -15 6 -16 5 -3 -9 8 -8 19 -15 25
-13 5 1 7 0 3 -2 -5 -3 -8 -18 -8 -34 0 -21 4 -28 13 -24 6 4 2 -2 -11 -12
-13 -10 -20 -22 -16 -26 4 -4 12 -3 18 3 8 6 12 3 12 -10 0 -10 -4 -17 -7 -14
-4 2 -11 0 -14 -6 -4 -6 -1 -9 7 -8 8 2 13 -6 12 -18 0 -16 4 -20 15 -16 14 5
14 4 1 -13 -14 -17 -13 -18 6 -13 25 6 27 -18 3 -33 -11 -7 -11 -9 -1 -9 7 0
10 -5 6 -12 -4 -7 -3 -8 5 -4 6 4 9 12 6 17 -3 5 1 6 9 3 14 -5 14 -8 1 -21
-18 -18 -19 -24 -2 -18 8 4 12 -5 12 -24 1 -16 -2 -28 -6 -25 -4 2 -11 -1 -15
-7 -4 -7 -3 -9 4 -5 6 3 13 2 17 -4 3 -5 -2 -10 -12 -11 -16 0 -16 -1 2 -9 14
-6 15 -9 5 -10 -10 -1 -9 -4 5 -10 16 -7 17 -9 3 -9 -10 -1 -15 -8 -13 -18 2
-10 4 -21 4 -25 1 -5 6 -8 12 -8 8 0 8 4 0 14 -9 10 -9 16 -1 21 6 4 14 4 17
1 4 -3 1 -6 -7 -6 -10 0 -10 -3 -1 -14 8 -10 9 -16 1 -21 -11 -7 -14 -26 -2
-23 4 2 7 -1 7 -7 0 -5 -3 -9 -7 -7 -5 1 -8 -2 -8 -8 0 -5 5 -10 11 -10 5 0 7
-5 4 -10 -10 -16 5 -51 18 -43 7 3 3 -4 -8 -17 -11 -13 -15 -20 -9 -17 7 4 14
-3 16 -18 3 -13 1 -22 -3 -19 -5 3 -9 0 -9 -5 0 -6 5 -11 10 -11 6 0 9 -3 9
-7 -4 -23 2 -43 11 -38 6 4 9 1 8 -7 -2 -7 2 -12 9 -11 8 2 8 -5 -2 -23 -16
-31 -10 -54 14 -55 12 0 12 -2 -4 -9 -13 -6 -15 -9 -5 -9 13 -1 13 -2 0 -11
-13 -9 -13 -10 0 -10 13 0 13 -1 0 -10 -12 -8 -12 -10 -1 -10 11 0 11 -3 0
-17 -8 -9 -9 -14 -3 -10 8 5 11 -8 10 -43 -2 -45 -1 -48 17 -38 15 8 18 7 11
-4 -5 -7 -8 -34 -9 -60 0 -40 2 -45 15 -35 12 10 13 9 4 -3 -6 -8 -10 -23 -9
-33 2 -9 0 -15 -4 -13 -4 3 -7 -8 -6 -23 0 -16 4 -28 10 -26 5 1 7 0 2 -2 -4
-3 -5 -9 -2 -14 4 -5 -1 -6 -9 -3 -14 5 -14 3 -1 -22 7 -15 11 -32 7 -38 -4
-6 -7 -22 -7 -36 0 -14 -3 -30 -7 -36 -4 -6 -1 -11 7 -11 8 0 11 5 8 10 -4 6
-1 7 7 2 10 -6 7 -13 -11 -27 -13 -11 -19 -17 -13 -14 16 8 24 -27 11 -49 -6
-12 -6 -16 1 -11 5 3 13 -1 16 -10 3 -8 2 -13 -3 -10 -5 3 -11 -12 -13 -35 -2
-22 0 -43 4 -45 5 -3 6 -10 3 -15 -4 -5 2 -9 12 -9 15 0 16 -2 3 -10 -13 -8
-13 -10 2 -10 9 0 19 -4 22 -9 4 -5 -4 -7 -16 -4 -18 4 -20 2 -9 -5 24 -17 22
-40 -2 -34 -21 5 -21 5 1 -18 25 -27 21 -40 -5 -19 -16 13 -17 12 -4 -3 10
-14 10 -18 1 -18 -7 0 -2 -9 11 -19 l24 -20 -25 5 c-18 4 -21 3 -11 -4 7 -5
14 -21 14 -36 0 -14 3 -23 7 -21 10 6 7 -22 -4 -32 -4 -4 -6 -3 -4 3 3 11 -1
14 -19 14 -3 0 2 -10 13 -22 17 -19 17 -21 2 -15 -15 5 -15 3 2 -28 13 -24 16
-36 8 -41 -6 -4 -8 -3 -4 4 3 6 2 13 -3 16 -5 4 -12 2 -15 -3 -4 -5 -2 -12 3
-15 10 -7 9 -25 -2 -43 -7 -12 -3 -16 14 -15 3 1 3 -12 1 -29 -2 -17 -9 -26
-15 -22 -6 3 -7 1 -3 -6 4 -6 11 -9 16 -6 5 3 11 1 14 -4 4 -5 2 -12 -4 -16
-5 -3 -10 -15 -10 -26 0 -13 4 -18 12 -13 7 4 8 3 4 -5 -4 -6 -11 -9 -16 -6
-5 3 -12 0 -16 -6 -4 -7 -3 -9 3 -6 6 4 16 0 23 -8 11 -13 10 -14 -3 -10 -8 4
-18 1 -23 -6 -4 -8 -3 -10 4 -5 7 4 12 1 12 -8 0 -8 -3 -16 -7 -19 -5 -2 -3
-3 3 -1 15 3 8 -74 -8 -93 -6 -8 -7 -13 -2 -12 23 4 26 -2 8 -17 -10 -8 -14
-13 -8 -10 7 3 14 -3 17 -13 4 -15 1 -18 -12 -14 -9 4 -7 -2 7 -13 21 -18 22
-21 7 -39 -10 -13 -14 -15 -13 -5 2 8 8 19 13 23 6 5 4 7 -5 4 -15 -4 -21 -24
-11 -42 9 -16 8 -29 -4 -38 -6 -5 -3 -7 7 -3 10 3 20 0 24 -6 4 -7 3 -8 -4 -4
-7 4 -13 1 -13 -8 -3 -33 -4 -37 -15 -44 -6 -4 -10 -18 -9 -31 2 -21 0 -22
-10 -7 -16 22 -28 20 -22 -3 4 -15 0 -19 -14 -16 -22 4 -34 -10 -18 -21 8 -5
9 -3 4 6 -5 9 -4 11 4 6 17 -11 3 -26 -17 -19 -15 6 -16 5 -2 -12 14 -17 14
-18 -8 -6 -22 12 -23 11 -12 -8 8 -17 8 -21 -2 -19 -7 2 -16 7 -19 11 -3 5 -9
2 -12 -7 -4 -9 -3 -15 1 -15 25 4 32 -1 20 -15 -7 -8 -16 -12 -19 -10 -11 7
-18 -23 -8 -33 6 -6 4 -10 -6 -11 -8 -1 -21 -3 -29 -4 -8 -1 -12 -8 -9 -16 5
-11 7 -11 15 0 8 10 9 10 5 -2 -2 -8 -11 -14 -20 -14 -9 1 -14 -2 -11 -8 3 -5
0 -16 -8 -25 -7 -9 -12 -18 -11 -19 7 -10 -11 -33 -21 -27 -6 3 -8 3 -5 -1 9
-10 -5 -61 -17 -61 -5 0 -15 -4 -22 -9 -11 -6 -10 -12 5 -28 13 -15 14 -19 3
-16 -8 2 -18 7 -22 13 -4 5 -6 0 -5 -12 0 -12 6 -19 12 -15 12 7 -15 -29 -30
-40 -7 -5 -6 -8 1 -8 5 0 16 6 23 12 10 11 11 10 6 -5 -6 -15 -17 -21 -35 -19
-3 0 -6 -7 -6 -16 -1 -9 -5 -26 -9 -36 -6 -14 -5 -17 3 -12 8 5 10 2 6 -9 -5
-11 -10 -13 -19 -5 -10 8 -15 8 -21 -1 -4 -7 -3 -9 3 -6 6 4 13 1 16 -7 4 -9
-2 -12 -18 -11 -18 3 -22 -1 -17 -18 3 -12 1 -18 -5 -14 -5 3 -10 0 -10 -8 0
-8 5 -11 10 -8 6 4 7 1 3 -6 -5 -7 -14 -10 -21 -7 -9 3 -12 -2 -10 -14 2 -11
-1 -23 -7 -26 -7 -4 -8 -2 -4 4 4 7 2 12 -5 12 -7 0 -9 -8 -6 -21 4 -14 1 -19
-7 -16 -6 3 -20 -1 -31 -9 -17 -12 -17 -14 -2 -14 9 0 17 6 17 13 0 6 5 4 11
-6 6 -10 8 -21 5 -24 -3 -4 -6 -1 -6 5 0 6 -7 9 -15 6 -8 -4 -12 -11 -8 -17 4
-6 0 -8 -10 -4 -19 7 -32 -8 -16 -19 8 -5 9 -3 4 6 -5 9 -4 11 4 6 6 -4 9 -12
5 -17 -3 -5 -10 -6 -16 -3 -8 5 -9 1 -4 -11 6 -16 4 -16 -10 -4 -15 12 -16 11
-9 -11 7 -21 5 -23 -6 -13 -11 9 -20 7 -39 -10 -14 -11 -18 -18 -8 -14 12 4
16 1 15 -12 0 -11 -6 -17 -13 -14 -7 2 -15 0 -19 -6 -3 -6 0 -11 7 -11 8 0 6
-5 -5 -11 -9 -5 -23 -7 -30 -3 -8 5 -7 2 2 -9 13 -17 7 -22 -20 -19 -12 2 -44
-40 -44 -56 0 -10 -7 -16 -17 -16 -10 1 -15 -2 -12 -7 3 -5 0 -9 -5 -9 -6 0
-11 -5 -11 -11 0 -5 6 -7 13 -3 9 5 9 4 0 -6 -7 -7 -23 -14 -35 -15 -13 -1
-24 -7 -24 -13 -1 -7 -2 -19 -3 -27 0 -8 -6 -15 -12 -15 -5 0 -7 5 -3 12 4 7
3 8 -4 4 -7 -4 -12 -14 -12 -22 0 -13 -13 -19 -34 -15 -5 1 -4 -4 3 -13 9 -11
9 -16 0 -22 -8 -4 -9 -3 -5 4 4 7 3 12 -2 12 -15 0 -22 -13 -12 -24 6 -8 3
-12 -11 -13 -12 -1 -17 2 -13 10 4 7 -5 1 -19 -12 -22 -20 -25 -27 -14 -39 10
-13 9 -15 -4 -10 -12 5 -16 0 -17 -20 0 -51 -1 -54 -19 -47 -15 5 -16 4 -5 -6
6 -7 12 -18 12 -24 0 -5 -4 -4 -9 4 -7 11 -13 9 -30 -8 -11 -11 -21 -25 -21
-31 0 -5 -5 -10 -11 -10 -5 0 -7 5 -4 10 3 6 4 10 1 10 -10 0 -35 -58 -28 -65
4 -5 2 -5 -5 -2 -6 4 -23 3 -38 -3 -14 -5 -24 -6 -21 -2 2 4 -4 9 -16 9 -19 2
-18 1 4 -19 15 -14 17 -19 6 -15 -11 4 -25 -3 -40 -18 -13 -14 -27 -25 -33
-25 -5 0 -3 4 5 10 8 5 11 13 6 17 -4 4 -13 0 -20 -9 -10 -14 -15 -15 -26 -5
-8 7 -10 7 -7 1 4 -6 -3 -20 -16 -30 -15 -13 -18 -14 -9 -3 11 15 10 17 -12
15 -18 -1 -22 -4 -14 -13 7 -9 4 -11 -11 -8 -12 2 -21 -1 -21 -7 0 -6 -7 -5
-17 3 -11 10 -14 10 -9 2 4 -8 2 -13 -5 -13 -7 0 -9 -9 -6 -22 6 -22 6 -22 -8
-4 -13 17 -15 17 -15 4 0 -22 -16 -32 -26 -17 -5 8 -3 9 6 4 9 -5 11 -4 6 4
-6 9 -11 9 -22 0 -8 -6 -14 -8 -14 -4 0 4 -8 1 -17 -6 -15 -12 -16 -12 -10 3
4 12 2 15 -8 11 -8 -3 -12 -9 -9 -14 10 -17 -9 -9 -22 8 -12 17 -13 16 -9 -4
4 -25 -10 -40 -21 -22 -5 8 -3 9 7 4 8 -5 10 -4 6 0 -17 19 -38 11 -67 -25
-16 -20 -26 -40 -22 -44 3 -4 -5 -3 -19 3 -22 8 -26 7 -25 -7 1 -20 -33 -29
-46 -10 -7 9 -8 6 -5 -10 5 -23 5 -23 -13 -7 -19 17 -19 16 -15 -6 4 -23 4
-23 -10 -5 -8 11 -15 15 -15 9 0 -6 -11 -13 -25 -15 -15 -3 -22 -1 -18 5 3 6
1 7 -5 3 -6 -3 -13 -2 -17 4 -3 5 -12 10 -18 10 -8 0 -8 -3 2 -9 14 -9 4 -19
-16 -15 -7 1 -20 2 -29 3 -9 0 -12 6 -8 13 4 7 3 8 -4 4 -7 -4 -12 -15 -12
-24 -1 -16 -1 -16 -10 0 -7 11 -19 15 -36 12 -14 -3 -33 1 -43 8 -14 11 -14
11 -3 -3 10 -14 10 -18 -4 -23 -22 -9 -31 -7 -16 3 11 7 10 9 -3 14 -9 4 -14
3 -10 -3 3 -6 -1 -13 -9 -16 -9 -3 -13 -11 -9 -18 3 -6 1 -6 -8 2 -16 15 -29
16 -29 1 0 -5 4 -8 9 -5 5 3 11 -1 14 -9 4 -9 1 -12 -9 -8 -9 3 -14 -1 -14
-13 0 -11 -4 -15 -8 -9 -4 6 -13 11 -21 13 -12 3 -12 0 -2 -12 10 -12 9 -19
-9 -38 -22 -22 -22 -22 -11 -1 14 27 14 44 0 20 -6 -9 -16 -14 -22 -11 -7 4
-9 4 -5 -1 4 -4 2 -15 -5 -23 -6 -9 -7 -13 -1 -9 6 3 11 0 11 -8 0 -8 -4 -12
-9 -9 -11 7 -39 -27 -32 -38 2 -4 -7 -5 -20 -2 -18 3 -28 -2 -36 -17 -8 -13
-17 -18 -28 -15 -9 4 -6 -3 8 -14 19 -15 20 -18 6 -13 -12 4 -17 3 -13 -4 3
-5 0 -10 -8 -10 -8 0 -12 3 -10 7 6 10 -33 5 -42 -5 -5 -4 -3 -5 4 -1 6 3 15
1 19 -5 4 -7 3 -9 -4 -5 -6 3 -16 -2 -22 -11 -10 -17 -10 -17 -8 1 2 11 -4 20
-14 21 -10 2 -18 -1 -18 -6 0 -5 -5 -9 -11 -9 -5 0 -8 4 -4 9 3 5 0 13 -6 17
-8 4 -9 3 -5 -5 11 -18 -43 -8 -55 10 -8 11 -9 9 -5 -7 4 -14 2 -21 -8 -21 -9
0 -14 3 -12 6 2 3 -2 12 -10 19 -8 7 -14 8 -14 3 0 -16 -40 -8 -41 9 -1 8 -5
4 -9 -10 -7 -21 -8 -22 -9 -5 -1 17 -3 17 -11 5 -6 -10 -10 -11 -10 -2 0 6 -5
12 -11 12 -5 0 -7 -4 -4 -10 3 -5 1 -10 -4 -10 -6 0 -11 6 -11 13 0 8 -4 7
-10 -3 -8 -12 -10 -12 -10 5 -1 17 -3 16 -11 -5 -10 -24 -11 -24 -25 -6 -13
18 -19 12 -15 -16 0 -4 -5 -5 -13 -2 -7 3 -19 -2 -26 -11 -7 -8 -18 -15 -24
-15 -6 0 -3 5 7 11 9 5 17 14 17 20 0 5 -9 4 -20 -3 -11 -7 -20 -18 -20 -24 0
-6 -12 -10 -26 -8 -19 2 -24 -1 -20 -12 3 -8 1 -14 -5 -14 -6 0 -7 -5 -3 -12
4 -7 3 -8 -5 -4 -6 4 -8 13 -5 19 5 8 3 8 -7 -1 -17 -16 -46 -16 -53 1 -3 6
-4 -4 -1 -23 3 -24 2 -29 -3 -15 -5 11 -19 20 -35 20 -14 1 -24 -2 -21 -7 3
-4 10 -5 16 -2 7 4 8 2 4 -4 -5 -9 -13 -9 -27 -2 -13 7 -19 7 -19 0 0 -5 5
-10 12 -10 6 0 9 -2 6 -5 -10 -10 -38 7 -32 19 4 6 -6 -1 -20 -17 -15 -15 -32
-24 -38 -21 -7 4 -8 2 -4 -4 4 -6 14 -9 24 -6 15 5 15 5 -1 -6 -9 -6 -22 -8
-27 -5 -6 3 -10 1 -10 -5 0 -6 -5 -8 -10 -5 -6 4 -7 11 -4 17 4 7 2 8 -5 4 -6
-4 -9 -11 -6 -16 9 -14 -15 -23 -30 -10 -10 8 -15 8 -21 -1 -4 -8 -3 -9 4 -5
7 4 12 1 12 -7 0 -7 -7 -14 -15 -14 -8 0 -15 4 -15 8 0 4 -7 10 -16 13 -14 5
-15 4 -5 -8 9 -11 9 -16 0 -22 -7 -4 -9 -3 -6 3 4 6 0 13 -8 17 -8 3 -17 1
-20 -5 -4 -5 -11 -6 -17 -3 -8 5 -9 1 -4 -11 7 -18 6 -18 -14 0 -11 10 -23 15
-27 12 -3 -4 -1 -7 6 -7 7 0 9 -5 5 -11 -3 -6 -14 -9 -24 -6 -13 3 -16 -1 -14
-18 2 -20 -2 -23 -24 -19 -14 3 -29 7 -33 10 -4 2 -5 -6 -3 -18 2 -13 2 -17
-2 -10 -3 6 -10 12 -15 12 -6 0 -8 -4 -5 -9 3 -5 -6 -8 -20 -8 -14 0 -31 -6
-37 -13 -7 -8 -7 -10 -1 -7 6 3 11 0 11 -7 0 -11 -5 -11 -26 1 -23 12 -28 11
-41 -4 -16 -18 -27 -23 -68 -27 -12 -2 -25 -6 -30 -11 -4 -4 -2 -5 5 -1 6 3
14 2 17 -3 4 -5 -5 -8 -19 -6 -17 1 -25 -3 -25 -14 0 -14 -2 -14 -10 -1 -5 8
-10 11 -10 6 0 -5 -7 -3 -15 4 -13 11 -14 10 -9 -4 5 -12 0 -16 -21 -16 -14 0
-24 -4 -20 -9 12 -20 -15 -20 -34 0 l-19 21 2 -25 c2 -20 -1 -25 -16 -22 -10
2 -27 -4 -37 -14 -18 -18 -20 -18 -36 -2 -16 15 -17 15 -6 -7 8 -14 8 -22 1
-22 -5 0 -10 4 -10 8 0 5 -7 9 -15 9 -11 0 -12 -4 -4 -13 7 -8 6 -14 -2 -20
-7 -4 -9 -3 -6 3 4 6 0 14 -9 17 -12 5 -15 2 -10 -9 3 -9 2 -13 -3 -10 -5 3
-13 1 -16 -5 -5 -8 -11 -7 -21 1 -11 9 -15 8 -20 -6 -4 -10 -14 -15 -26 -12
-16 5 -17 3 -7 -9 10 -12 9 -13 -6 -8 -13 5 -16 4 -11 -4 5 -9 0 -9 -19 -2
-17 7 -24 7 -20 0 3 -6 0 -10 -9 -10 -8 0 -17 6 -20 13 -3 6 -3 2 0 -10 4 -19
2 -22 -12 -16 -13 5 -15 3 -9 -7 6 -10 4 -11 -6 -4 -21 13 -56 12 -56 -2 0 -7
7 -10 16 -7 10 3 8 0 -3 -8 -16 -9 -21 -9 -24 0 -3 9 -8 9 -20 -1 -9 -7 -13
-8 -9 -2 3 6 0 11 -7 11 -8 0 -12 -6 -9 -13 2 -6 -1 -15 -8 -20 -8 -4 -10 -3
-5 4 4 7 2 12 -4 12 -22 0 -50 -21 -51 -38 0 -14 -2 -14 -9 3 -5 11 -9 16 -9
10 -1 -5 -6 -3 -11 5 -8 11 -9 7 -5 -15 3 -16 2 -24 -1 -17 -7 15 -31 16 -40
0 -5 -7 -3 -8 6 -3 9 5 11 4 6 -3 -5 -8 -13 -9 -26 -2 -22 12 -45 -10 -30 -28
7 -9 7 -9 -2 -2 -15 12 -31 13 -24 1 3 -5 -2 -15 -11 -22 -10 -8 -14 -9 -10
-2 4 6 3 14 -3 18 -6 3 -13 0 -16 -8 -5 -13 -9 -13 -31 -2 -36 19 -56 10 -41
-18 10 -20 10 -21 -5 -8 -11 9 -17 10 -17 2 0 -6 -5 -11 -11 -11 -5 0 -7 5 -3
12 5 7 3 8 -5 4 -7 -5 -10 -15 -6 -23 4 -13 3 -14 -10 -3 -8 7 -12 17 -8 23 3
6 1 7 -6 3 -6 -4 -9 -12 -6 -17 4 -5 -1 -9 -10 -9 -9 0 -13 5 -9 11 4 7 -3 6
-17 -2 -13 -7 -26 -13 -29 -13 -3 -1 -5 -6 -4 -12 1 -6 -5 -11 -13 -11 -8 0
-12 6 -8 15 4 12 2 12 -8 4 -8 -7 -18 -8 -23 -4 -4 4 -2 -1 5 -11 13 -16 12
-19 -7 -24 -12 -3 -19 -9 -16 -14 3 -5 0 -9 -6 -9 -6 0 -8 -4 -5 -10 3 -5 1
-10 -6 -10 -7 0 -5 -9 7 -22 15 -19 16 -20 2 -9 -15 11 -18 11 -18 0 0 -11 -2
-11 -10 1 -8 13 -10 13 -11 -2 -3 -38 -5 -43 -17 -41 -7 2 -12 -5 -12 -14 0
-15 -2 -14 -16 3 -8 10 -13 14 -9 7 7 -15 -24 -32 -45 -25 -11 4 -10 1 3 -12
21 -22 22 -33 1 -15 -13 11 -17 10 -26 -4 -10 -18 -28 -14 -28 6 0 7 4 6 10
-3 6 -9 10 -10 10 -3 0 20 -18 24 -29 6 -8 -13 -10 -14 -11 -4 0 11 -4 9 -15
-5 -15 -18 -15 -18 -8 0 4 13 3 17 -5 12 -7 -4 -12 -1 -13 6 0 7 -4 4 -9 -7
-5 -11 -9 -1565 -9 -3457 l-1 -3438 8575 0 8575 0 0 3436 c0 2954 -2 3437 -14
3450 -11 11 -16 11 -19 1 -4 -8 -6 -8 -6 2 -1 11 -5 10 -16 -5 -11 -13 -13
-14 -9 -3 3 9 -1 19 -9 22 -11 4 -13 0 -10 -16 4 -18 3 -19 -6 -7 -6 8 -11 11
-12 5 0 -5 -4 -1 -9 10 -7 17 -9 17 -9 3 -1 -10 -6 -18 -12 -18 -5 0 -7 6 -3
13 5 7 0 6 -11 -3 -10 -8 -16 -10 -13 -5 4 6 -2 16 -12 23 -16 10 -22 8 -35
-10 -13 -20 -20 -18 -16 5 1 5 -3 6 -9 2 -6 -3 -8 -10 -5 -15 3 -5 1 -12 -5
-15 -6 -4 -9 -1 -8 6 2 6 -3 14 -11 17 -10 3 -12 0 -8 -14 7 -18 6 -18 -7 -1
-7 9 -18 17 -25 17 -6 0 -11 5 -11 12 0 6 -3 8 -7 4 -5 -4 1 -14 11 -22 11 -8
16 -14 12 -14 -4 0 -21 9 -36 20 -17 12 -35 17 -46 13 -14 -5 -16 -2 -11 18 6
23 6 24 -10 4 -15 -20 -15 -20 -11 1 4 15 1 21 -11 20 -9 0 -15 5 -13 12 1 8
-2 11 -7 8 -5 -3 -20 4 -35 15 -14 11 -26 17 -26 14 0 -4 -8 -1 -17 6 -16 13
-17 12 -4 -3 16 -21 9 -23 -21 -7 -17 9 -20 9 -16 -3 4 -10 -2 -14 -22 -14
-16 0 -27 3 -25 6 2 4 -10 12 -28 18 -18 6 -37 22 -42 34 -6 13 -14 22 -20 21
-5 -1 -15 3 -20 7 -6 5 -17 5 -25 0 -23 -15 -34 -12 -20 5 12 14 7 19 -14 16
-4 -1 -15 4 -23 10 -11 10 -14 10 -11 -2 2 -8 8 -18 13 -22 6 -5 1 -6 -10 -2
-11 4 -25 8 -32 8 -7 0 -10 4 -7 9 3 5 10 5 16 2 6 -4 8 -2 5 3 -4 6 -18 8
-32 5 -15 -2 -25 0 -25 7 0 6 -5 11 -11 11 -5 0 -7 -6 -3 -12 5 -9 2 -9 -9 1
-18 14 -23 26 -8 16 5 -3 13 -1 16 5 4 6 3 10 -2 9 -21 -4 -34 2 -27 13 4 7 3
8 -4 4 -6 -4 -8 -14 -5 -23 6 -15 5 -16 -9 -3 -9 8 -14 18 -12 21 2 4 -3 10
-12 13 -8 3 -12 2 -9 -4 9 -15 -5 -12 -21 5 -9 8 -23 15 -32 14 -12 0 -11 -3
6 -9 30 -12 28 -22 -2 -10 -13 5 -27 6 -32 2 -4 -4 -3 -1 1 7 6 11 4 13 -8 8
-10 -4 -20 0 -26 11 -6 10 -11 12 -11 5 0 -23 -20 -14 -38 17 -13 21 -22 26
-29 19 -8 -8 -13 -7 -18 2 -5 8 -4 10 3 5 8 -5 12 0 12 13 0 12 -5 21 -11 21
-5 0 -7 -6 -4 -12 4 -7 0 -5 -8 5 -15 17 -33 24 -23 8 3 -5 -1 -11 -9 -14 -8
-4 -12 -1 -9 6 3 8 -5 13 -18 14 -16 2 -19 0 -9 -6 9 -6 3 -8 -18 -7 -20 0
-33 7 -37 18 -7 23 -20 23 -34 1 -10 -16 -11 -16 -6 -1 3 9 -2 19 -10 22 -24
9 -31 7 -14 -4 8 -5 11 -10 5 -10 -5 0 -17 5 -25 10 -12 7 -10 11 10 19 22 9
21 10 -11 6 -31 -3 -36 0 -32 14 2 10 -2 23 -10 29 -11 9 -14 9 -14 -3 0 -8 5
-11 10 -8 6 4 7 1 2 -7 -6 -10 -12 -7 -26 11 -10 13 -23 25 -28 25 -6 1 -12 3
-13 4 -3 2 -22 5 -75 12 -6 1 -9 8 -5 16 3 10 1 13 -6 8 -7 -4 -12 -2 -12 3 0
6 -7 11 -15 11 -8 0 -15 5 -15 10 0 6 -5 10 -11 10 -5 0 -7 -6 -3 -12 8 -14
-26 10 -37 26 -4 4 -10 3 -13 -3 -9 -14 -26 -14 -26 0 0 5 6 7 13 3 6 -4 8 -3
4 1 -11 13 -38 15 -31 3 4 -7 2 -8 -5 -4 -6 4 -9 16 -6 27 4 11 2 19 -5 19 -6
0 -8 -4 -5 -10 3 -5 -1 -10 -9 -10 -9 0 -15 3 -15 7 3 19 -2 33 -12 33 -5 0
-7 -4 -4 -10 3 -5 2 -10 -3 -10 -6 0 -12 7 -16 15 -3 8 0 15 6 15 6 0 8 3 4 7
-4 5 -14 -1 -22 -11 -13 -18 -14 -18 -14 -2 0 9 -4 14 -10 11 -5 -3 -10 -1
-10 6 0 8 -4 8 -12 1 -15 -12 -62 20 -50 34 4 5 -2 2 -12 -6 -18 -14 -18 -13
-11 10 7 23 7 24 -10 10 -11 -9 -16 -10 -11 -3 4 7 2 21 -4 30 -11 17 -11 17
-6 0 7 -22 -7 -22 -25 0 -10 11 -10 14 -1 9 6 -4 12 -2 12 3 0 15 -13 14 -29
-1 -11 -11 -12 -10 -6 1 6 11 4 13 -9 8 -13 -5 -19 -1 -23 12 -3 13 -10 18
-21 14 -8 -4 -13 -2 -9 3 3 6 -3 15 -13 22 -16 10 -21 9 -30 -6 -9 -15 -10
-15 -8 4 2 11 -1 22 -7 23 -5 2 -16 7 -22 13 -9 7 -13 7 -13 -1 0 -10 14 -15
33 -12 5 1 6 -3 2 -9 -4 -7 -12 -7 -24 0 -10 5 -22 6 -26 2 -3 -4 -6 -2 -5 3
5 23 -1 28 -13 11 -12 -17 -13 -16 -13 6 1 12 -3 24 -9 26 -5 1 -10 -2 -10 -7
0 -5 -4 -13 -9 -18 -5 -5 -6 -3 -2 5 4 6 2 12 -4 12 -6 0 -8 6 -5 13 4 6 0 4
-7 -5 -13 -15 -15 -15 -26 3 -7 11 -18 17 -24 13 -7 -4 -8 -3 -4 4 7 11 -6 17
-27 13 -5 -1 -6 3 -2 9 3 6 11 7 17 4 7 -4 8 -2 4 5 -4 6 -12 9 -17 6 -5 -4
-9 0 -9 7 0 9 -3 9 -10 -2 -6 -10 -10 -11 -10 -2 0 6 -5 12 -11 12 -5 0 -8 -4
-5 -8 3 -5 -1 -9 -9 -9 -8 0 -11 5 -8 10 4 6 0 8 -10 4 -11 -4 -17 -1 -17 8 0
8 -5 15 -11 15 -5 0 -7 5 -3 12 5 7 3 8 -7 3 -19 -12 -49 -14 -43 -3 4 5 13 7
21 4 8 -3 11 -1 8 5 -4 5 -16 7 -27 3 -15 -4 -18 -3 -13 6 6 9 4 11 -6 4 -22
-14 -44 -15 -30 -1 15 15 14 24 -5 31 -8 3 -12 2 -9 -4 3 -6 1 -10 -4 -10 -6
0 -11 8 -11 17 0 15 -2 14 -15 -3 -11 -14 -14 -15 -9 -3 3 10 1 20 -5 24 -6 3
-11 -1 -11 -10 0 -9 -5 -13 -10 -10 -6 4 -8 10 -5 15 3 4 -3 14 -13 21 -15 13
-16 12 -4 -3 9 -11 10 -18 2 -23 -5 -3 -10 -1 -10 5 0 7 -7 9 -16 6 -13 -5
-14 -4 -6 7 15 17 -4 38 -26 30 -10 -4 -13 -2 -8 5 4 7 1 12 -9 12 -10 0 -13
-5 -9 -12 4 -7 3 -8 -4 -4 -6 4 -9 12 -6 20 4 9 -8 12 -44 12 -41 -1 -49 1
-44 14 5 12 1 12 -21 -3 -21 -14 -25 -14 -21 -2 4 8 1 15 -6 15 -6 0 -8 5 -4
13 5 8 2 7 -9 -2 -19 -15 -32 -9 -32 16 0 8 -11 22 -25 30 l-25 15 25 -21 c23
-21 24 -22 2 -11 -12 6 -28 8 -34 4 -7 -4 -8 -3 -4 4 6 11 -6 16 -19 10 -2 -2
-12 7 -20 20 -17 23 -35 29 -35 11 0 -5 4 -8 9 -4 5 3 12 1 15 -4 4 -5 2 -12
-3 -15 -5 -4 -12 -2 -16 4 -9 14 -42 13 -49 -2 -3 -7 -4 -4 -1 8 4 14 0 21 -9
21 -9 0 -13 -4 -10 -9 3 -4 0 -8 -5 -8 -10 0 -15 12 -13 31 1 3 -9 5 -21 4
-12 -1 -30 5 -40 13 -16 14 -19 14 -27 2 -8 -12 -10 -10 -10 9 0 18 -4 22 -19
18 -13 -3 -18 -1 -14 8 3 9 -2 12 -14 11 -10 -2 -23 0 -28 5 -6 4 -17 3 -25
-3 -13 -8 -12 -9 2 -5 9 3 18 0 21 -6 3 -7 -5 -12 -18 -12 -13 0 -21 3 -19 6
3 6 -20 30 -43 43 -6 3 -15 1 -19 -5 -4 -8 -3 -9 4 -5 7 4 12 3 12 -2 0 -5 -9
-12 -20 -15 -11 -3 -18 -2 -16 2 3 4 1 13 -5 21 -7 12 -9 12 -9 -3 0 -15 -5
-13 -26 10 -15 15 -21 20 -14 11 10 -15 10 -18 -4 -18 -9 0 -16 5 -16 10 0 6
-8 10 -17 10 -15 0 -16 -2 -3 -10 8 -5 10 -10 4 -10 -6 0 -17 7 -24 15 -7 8
-16 12 -21 9 -5 -3 -9 -2 -8 3 4 25 -4 33 -37 33 -25 0 -33 -4 -29 -12 4 -7 0
-5 -8 5 -18 22 -28 22 -21 0 5 -17 5 -17 -6 -1 -6 10 -17 15 -28 11 -15 -5
-14 -4 2 9 17 13 16 14 -12 12 -24 -1 -29 1 -25 14 5 11 3 13 -8 7 -11 -7 -11
-5 1 10 9 11 10 16 3 11 -11 -6 -17 3 -15 25 1 10 -32 7 -48 -4 -12 -9 -13 -9
-2 3 15 18 16 34 0 24 -8 -5 -9 -2 -4 11 5 14 4 15 -7 7 -10 -8 -16 -6 -26 10
-11 17 -10 22 1 29 7 5 8 9 2 9 -5 0 -15 -5 -22 -12 -9 -9 -12 -9 -12 1 0 7
-5 9 -12 5 -6 -4 -8 -3 -4 4 3 6 -2 15 -11 21 -10 6 -14 11 -9 11 5 0 17 -7
27 -16 13 -12 19 -12 25 -3 4 8 3 10 -4 5 -7 -4 -12 -3 -12 3 0 5 -10 13 -22
17 -33 9 -57 34 -51 50 3 8 1 14 -5 14 -6 0 -13 -6 -15 -12 -3 -8 -6 -5 -6 5
-1 21 -26 49 -35 40 -3 -4 -6 1 -6 10 0 9 -5 17 -11 17 -5 0 -7 -6 -3 -13 5
-9 4 -9 -6 0 -17 16 -22 43 -7 43 5 0 7 3 4 6 -4 4 -13 2 -20 -4 -11 -9 -19
-6 -38 15 -13 14 -18 23 -11 19 6 -4 12 -2 12 3 0 6 -7 11 -16 11 -8 0 -12 5
-9 10 3 6 2 10 -4 10 -5 0 -11 -3 -14 -7 -2 -5 -2 -2 -1 4 2 7 1 20 -2 28 -5
13 -9 13 -23 3 -9 -7 -13 -9 -9 -4 4 5 -3 17 -15 27 -19 16 -20 20 -7 30 13 9
12 10 -3 5 -10 -3 -21 -6 -23 -6 -3 0 -2 -5 2 -12 4 -7 3 -8 -5 -4 -9 6 -9 11
0 22 8 10 8 14 0 14 -22 0 -26 2 -34 16 -4 8 -15 14 -23 14 -8 0 -12 -5 -9
-10 4 -6 11 -7 17 -4 7 4 8 2 4 -4 -5 -9 -12 -8 -27 1 -17 11 -18 13 -3 24 14
10 13 12 -5 18 -12 3 -18 11 -15 17 5 7 2 8 -6 3 -10 -6 -9 -11 5 -21 16 -12
16 -13 -3 -11 -11 0 -18 5 -16 9 3 4 0 8 -7 8 -8 0 -8 4 1 15 7 9 10 18 6 22
-3 3 -6 1 -6 -5 0 -6 -9 -10 -19 -9 -12 1 -17 6 -13 16 4 10 1 12 -9 6 -12 -8
-12 -6 0 8 8 10 11 20 7 24 -3 3 -6 1 -6 -6 0 -7 -5 -9 -10 -6 -6 4 -7 11 -4
17 4 5 -4 4 -17 -3 -22 -11 -23 -11 -10 4 8 11 9 17 3 17 -6 0 -9 8 -5 17 5
15 3 15 -11 -2 -10 -11 -16 -15 -13 -10 2 6 -2 24 -10 40 -12 26 -13 27 -9 5
5 -24 4 -24 -9 -6 -8 10 -12 22 -10 26 2 4 -7 6 -20 4 -18 -1 -25 3 -25 14 0
15 -2 15 -10 2 -5 -8 -10 -10 -10 -4 0 6 -10 16 -22 22 -13 6 -17 11 -10 11 6
1 12 10 12 20 0 11 3 21 8 24 4 2 2 2 -5 1 -7 -2 -15 1 -18 6 -4 6 1 10 9 10
8 0 18 5 22 12 4 7 3 8 -4 4 -16 -10 -15 16 1 33 8 10 8 12 0 7 -12 -6 -26 8
-29 31 -1 6 5 9 13 6 12 -5 12 -7 1 -14 -9 -6 -9 -9 -1 -9 21 0 23 17 4 34
-18 17 -22 38 -8 52 3 4 5 -3 2 -14 -3 -15 0 -19 12 -15 8 3 11 9 6 12 -4 3
-9 14 -11 25 -2 12 1 16 10 10 7 -4 6 1 -3 12 -22 26 -32 73 -19 89 8 10 8 15
-1 21 -7 4 -9 3 -5 -4 3 -6 1 -14 -6 -18 -7 -4 -10 -4 -6 1 4 4 3 14 -3 21 -7
8 -6 14 2 20 8 5 10 3 4 -7 -5 -8 -4 -11 1 -6 5 5 9 12 9 15 0 4 4 12 8 19 4
6 3 14 -3 18 -6 4 -7 11 -4 17 5 7 2 8 -6 3 -10 -6 -12 -3 -8 13 4 14 2 20 -5
15 -6 -4 -8 1 -5 14 3 12 1 27 -4 34 -8 11 -9 10 -4 -3 3 -10 1 -20 -3 -23 -5
-3 -8 9 -7 25 2 21 -2 30 -13 30 -14 0 -14 1 -1 10 12 8 12 10 1 10 -11 0 -11
3 -1 15 9 11 7 19 -11 37 l-23 23 18 -30 c14 -22 14 -26 3 -15 -20 19 -25 44
-9 45 6 0 11 5 10 10 -2 6 -8 10 -13 9 -6 -1 -11 7 -11 17 0 14 3 16 15 6 12
-10 12 -9 1 10 -8 12 -17 20 -20 18 -4 -2 -7 2 -7 10 0 8 4 12 8 9 4 -2 11 0
14 6 4 6 3 10 -2 9 -4 -1 -16 -1 -27 0 -16 1 -17 3 -5 18 10 11 10 14 2 9 -12
-7 -18 5 -14 27 1 5 -3 6 -9 2 -6 -3 -8 -11 -5 -16 3 -5 -1 -6 -10 -3 -11 5
-13 10 -5 19 8 10 8 15 -1 21 -8 4 -9 3 -5 -4 4 -7 3 -12 -3 -12 -5 0 -13 9
-16 20 -4 11 -11 17 -17 14 -6 -4 -6 1 1 14 14 25 14 43 1 22 -6 -10 -10 -11
-10 -2 0 24 -2 27 -17 45 -9 9 -13 17 -10 17 3 0 -4 10 -16 23 -12 13 -26 21
-32 18 -5 -3 -4 2 3 11 9 11 10 18 2 23 -6 3 -7 11 -4 17 4 7 2 8 -5 4 -8 -6
-9 -12 -2 -20 8 -9 7 -13 -3 -13 -8 0 -13 7 -11 16 1 9 -2 25 -8 36 -9 18 -9
19 7 6 9 -8 19 -11 23 -7 3 3 1 6 -5 6 -7 0 -11 6 -10 13 2 6 -3 11 -10 9 -8
-1 -11 2 -7 8 3 6 11 8 16 5 5 -4 9 -1 9 4 0 6 -6 11 -12 11 -10 0 -9 3 1 9
11 7 11 9 0 14 -10 4 -10 6 -1 6 6 1 12 5 12 11 0 5 -8 7 -17 4 -15 -5 -16 -4
-3 5 17 12 23 53 6 45 -6 -3 -2 2 9 12 15 13 16 15 3 11 -9 -3 -19 0 -22 8 -3
9 0 12 9 9 9 -4 12 1 11 13 -2 10 2 25 8 33 9 13 9 13 -5 2 -14 -10 -18 -10
-23 3 -3 9 -2 13 4 10 6 -3 10 -1 10 5 0 6 4 8 10 5 5 -3 7 0 4 9 -3 8 -12 12
-19 10 -7 -3 -16 -1 -19 4 -3 5 2 9 11 8 15 -1 17 10 18 72 1 44 -3 72 -10 72
-5 0 -3 5 5 10 13 9 13 10 0 10 -13 0 -13 1 0 10 13 9 13 10 0 10 -13 0 -13 1
0 10 10 6 11 10 3 10 -7 0 -13 5 -13 11 0 5 4 8 8 5 5 -3 9 1 9 9 0 8 -4 15
-8 15 -4 0 -10 7 -13 16 -5 13 -4 14 7 6 10 -9 14 -8 14 3 0 8 -4 15 -8 15
-13 0 -18 29 -7 36 6 4 8 3 4 -4 -3 -6 -3 -13 2 -16 4 -2 8 15 8 40 0 24 -3
44 -7 44 -4 0 -10 7 -13 16 -5 13 -4 14 7 6 10 -9 14 -8 14 3 0 8 -5 15 -10
15 -5 0 -4 7 3 15 7 8 9 15 5 15 -4 0 -1 8 6 17 10 11 10 14 2 9 -7 -4 -13 -3
-13 3 0 6 -8 8 -17 5 -17 -5 -17 -5 0 6 9 6 22 8 27 5 5 -3 7 1 4 9 -3 8 -13
17 -22 19 -15 4 -14 5 1 6 10 0 15 6 12 11 -4 6 -11 7 -17 4 -7 -4 -8 -2 -4 5
4 6 11 9 16 6 5 -3 12 -1 15 5 4 6 3 9 -2 8 -4 -2 -8 -1 -9 2 0 3 -6 15 -13
28 -9 17 -9 22 0 20 6 -2 14 3 17 11 3 10 0 11 -9 5 -11 -6 -10 -3 1 11 8 10
10 16 4 12 -7 -4 -14 -1 -17 7 -4 10 1 13 16 10 12 -2 16 -2 9 2 -6 3 -10 10
-6 15 3 5 -2 9 -10 9 -8 0 -17 4 -20 9 -4 5 4 7 16 5 13 -2 17 -1 10 2 -10 5
-9 9 5 20 17 13 17 14 -1 7 -13 -4 -17 -3 -13 4 4 6 1 14 -5 17 -7 3 -2 4 12
1 14 -3 19 -2 12 1 -6 3 -9 11 -5 17 4 7 0 8 -13 4 -18 -7 -18 -7 0 8 13 10
15 15 6 15 -9 0 -7 5 6 15 13 11 14 13 3 9 -9 -3 -19 1 -22 10 -4 11 0 14 16
11 20 -4 21 -3 5 9 -21 15 -24 30 -5 21 6 -4 3 0 -7 9 -10 8 -23 13 -29 9 -6
-3 -7 -1 -3 5 4 6 1 20 -6 31 -9 15 -9 23 1 34 9 12 9 17 0 23 -7 4 -9 3 -6
-3 3 -5 0 -10 -7 -10 -7 0 -13 6 -13 13 0 7 4 11 9 8 4 -3 8 17 8 45 0 27 3
51 8 54 4 2 2 2 -5 1 -7 -2 -15 1 -18 6 -4 6 1 10 10 10 9 0 13 5 10 10 -4 6
-1 18 6 26 10 12 8 17 -7 28 -17 13 -16 14 6 11 14 -1 31 4 39 12 12 13 11 14
-10 9 -24 -7 -24 -7 -3 6 20 12 20 15 7 27 -14 13 -14 16 1 26 17 13 23 30 7
20 -5 -3 -13 0 -17 6 -4 7 -3 9 4 5 6 -3 13 -2 17 4 3 5 1 10 -4 10 -6 0 -11
12 -11 26 0 14 -4 23 -10 19 -14 -9 -12 8 3 24 10 11 10 13 0 7 -9 -5 -13 4
-14 31 -1 21 -1 42 0 47 1 4 -3 14 -8 20 -8 9 -7 13 4 13 8 0 11 -5 8 -10 -3
-6 -1 -7 6 -3 9 6 9 11 1 21 -8 10 -5 19 12 36 19 18 20 21 4 15 -16 -5 -17
-4 -6 9 7 8 9 15 4 15 -5 0 -2 5 6 10 8 5 10 10 4 10 -7 0 -15 7 -18 16 -5 14
-4 15 8 5 11 -9 16 -9 22 0 4 8 3 9 -4 5 -7 -4 -12 -3 -12 3 0 5 6 12 13 14 6
3 1 6 -12 6 -23 1 -23 1 -4 19 10 9 14 14 8 10 -7 -5 -12 -2 -12 7 0 8 9 17
19 21 16 5 17 8 6 22 -10 12 -10 14 0 8 6 -4 12 -2 12 3 0 6 -8 11 -17 12 -15
0 -15 2 2 9 13 6 15 9 5 9 -13 1 -13 2 0 11 13 9 13 10 0 10 -13 0 -13 2 -1 9
8 5 11 16 8 25 -5 11 0 19 14 24 11 5 21 12 22 17 1 6 6 9 10 7 4 -1 3 7 -3
17 -9 17 -7 19 10 16 18 -3 19 -1 8 18 -10 20 -10 21 5 8 15 -12 17 -11 17 3
0 11 5 14 12 10 8 -5 9 -2 4 11 -5 14 -4 15 7 7 10 -8 13 -6 14 9 1 11 -2 17
-8 14 -5 -4 -9 -4 -9 0 0 3 10 10 23 15 17 7 18 9 5 9 -10 1 -18 6 -18 12 0 5
4 8 9 4 5 -3 13 0 17 6 4 7 3 9 -3 6 -6 -4 -16 0 -23 8 -11 13 -10 14 3 10 8
-4 18 -1 23 6 4 8 3 10 -4 5 -7 -4 -12 -1 -12 8 0 8 3 16 8 19 4 2 2 3 -4 1
-15 -3 -8 74 8 93 6 8 7 13 2 12 -23 -4 -26 2 -8 17 10 8 14 13 8 10 -7 -3
-14 3 -17 13 -4 15 -1 18 12 14 9 -4 7 2 -7 13 -21 18 -22 21 -7 39 10 13 14
15 13 5 -2 -8 -7 -19 -13 -23 -6 -5 -4 -7 5 -4 17 4 21 26 7 45 -6 7 -5 17 2
26 8 10 9 16 1 21 -10 6 -14 -1 -11 -18 1 -5 -3 -6 -9 -2 -7 4 -8 11 -1 18 12
16 17 104 6 114 -4 4 -5 2 -1 -4 4 -7 2 -13 -3 -13 -14 0 -14 13 1 28 9 9 9
12 -2 13 -8 1 -19 1 -24 0 -5 -1 -4 5 4 13 10 13 10 16 -1 16 -12 0 -12 2 0 9
8 5 10 14 5 22 -6 10 -3 10 11 -1 17 -14 18 -14 5 10 -13 24 -12 24 5 10 17
-14 18 -14 6 8 -7 14 -8 22 -1 22 5 0 10 4 10 10 0 5 -8 7 -17 4 -15 -5 -15
-4 1 6 15 10 20 9 27 -1 5 -8 9 -9 9 -4 0 6 -8 21 -17 34 -12 18 -13 22 -2 15
23 -14 38 -13 32 2 -3 9 0 14 8 12 9 -2 14 5 13 19 0 12 4 21 10 20 6 -1 10 4
8 11 -1 8 2 11 9 7 8 -5 8 -10 0 -18 -14 -14 -14 -27 0 -27 5 0 8 4 4 9 -3 5
0 13 6 16 5 4 8 13 5 21 -6 15 21 47 33 40 4 -3 6 9 5 25 -1 17 0 28 4 25 7
-8 33 14 27 24 -2 4 7 5 20 2 15 -2 25 0 25 7 0 7 -6 9 -12 6 -7 -4 -5 0 5 8
10 9 18 19 18 24 1 4 3 10 6 13 4 3 3 -1 -2 -8 -5 -10 -2 -13 11 -10 11 2 18
11 17 22 -1 13 2 15 10 7 14 -14 37 -14 37 0 0 5 -5 7 -12 3 -7 -4 -8 -3 -4 5
6 9 11 9 21 1 8 -7 15 -7 19 -1 3 5 0 12 -6 15 -7 3 -1 4 14 3 24 -4 26 -2 17
14 -7 14 -6 17 5 13 8 -3 17 0 21 5 3 6 10 9 15 6 5 -3 11 -1 14 4 7 10 -13 9
-31 -2 -6 -4 -15 -3 -18 3 -4 6 -3 9 2 8 4 -1 17 3 28 9 11 6 23 11 28 12 4 1
7 4 6 7 0 3 8 12 18 20 17 14 16 15 -7 9 -22 -5 -23 -5 -7 5 10 7 28 9 40 6
21 -5 21 -5 3 9 -18 14 -18 15 -2 15 12 0 16 5 13 15 -4 8 -1 17 5 21 6 4 8 3
5 -3 -4 -6 2 -13 14 -16 16 -4 18 -3 8 9 -11 13 -3 19 22 16 4 -1 5 7 2 16 -4
18 31 112 42 112 4 0 3 -5 -1 -12 -4 -7 -3 -8 4 -4 6 4 8 14 5 23 -5 12 -3 14
6 8 10 -6 11 -2 6 15 -5 15 -3 20 3 16 6 -3 14 -1 18 5 4 7 3 9 -4 5 -6 -3
-13 -2 -17 4 -3 5 1 10 9 10 8 0 18 5 22 12 5 7 3 8 -6 3 -8 -5 -11 -3 -8 6 3
8 14 13 24 11 15 -2 14 1 -6 13 -15 10 -18 14 -6 11 13 -5 17 -2 12 9 -3 9 0
15 10 15 9 0 12 -5 8 -12 -4 -6 -3 -8 4 -4 6 3 9 15 7 26 -3 13 1 17 11 13 8
-3 14 0 14 6 0 6 -5 11 -11 11 -5 0 -8 4 -4 10 3 5 11 8 18 6 7 -1 9 -1 4 1
-4 3 -5 9 -1 14 3 5 0 9 -6 9 -6 0 -9 4 -5 10 3 5 11 8 18 6 7 -1 9 -1 5 1 -5
3 -8 11 -8 19 0 9 4 13 8 10 10 -6 8 36 -3 54 -5 8 -4 15 3 18 6 2 8 11 5 19
-5 13 -2 15 12 9 18 -7 18 -6 0 14 -17 19 -17 20 -1 14 12 -5 19 -1 23 15 3
11 10 18 15 15 6 -4 3 5 -6 18 -14 21 -14 25 -1 25 8 0 11 -5 8 -11 -4 -6 1
-5 10 3 18 14 23 26 8 16 -5 -3 -12 -1 -16 5 -3 5 -2 10 4 10 6 0 8 7 5 15 -4
8 -11 12 -17 8 -6 -3 -7 -1 -3 6 4 6 11 9 15 7 4 -3 13 4 20 16 7 11 9 18 4
15 -5 -3 -15 -2 -23 4 -12 7 -12 9 4 9 16 0 16 2 -5 21 -13 11 -19 18 -12 15
6 -4 13 -3 16 1 2 5 2 2 1 -4 -2 -7 0 -13 5 -13 5 0 11 11 13 24 4 18 1 23
-10 19 -12 -5 -12 -2 -3 14 5 11 8 30 6 42 -2 12 0 19 6 16 5 -4 7 -11 4 -16
-4 -5 -2 -9 4 -9 5 0 9 9 8 20 -1 11 -6 20 -12 20 -5 0 -3 5 5 10 13 9 13 10
0 10 -13 0 -13 1 0 10 13 9 13 10 0 10 -13 0 -13 1 0 10 10 6 11 10 3 10 -7 0
-13 5 -13 11 0 5 4 8 8 5 5 -3 9 1 9 9 0 8 -4 15 -9 15 -4 0 -8 5 -8 11 0 6 6
9 13 6 8 -3 14 1 14 9 0 7 -4 11 -8 9 -4 -3 -2 6 4 19 7 13 16 22 22 19 5 -2
3 1 -6 9 -16 13 -23 51 -7 42 5 -3 6 -10 3 -15 -3 -5 1 -6 10 -2 12 4 13 8 5
13 -8 5 -9 14 -3 26 5 11 9 26 8 34 -1 8 6 24 14 35 16 20 16 20 -5 2 -19 -16
-22 -16 -28 -2 -3 9 -2 13 3 10 5 -3 12 -1 16 5 3 5 1 10 -4 10 -6 0 -11 5
-11 11 0 5 4 8 9 4 5 -3 12 -1 15 4 4 5 1 13 -5 17 -8 5 -9 3 -4 -6 5 -9 4
-11 -4 -6 -6 4 -8 13 -4 19 10 16 4 50 -11 59 -8 6 -7 8 2 8 7 0 10 5 6 12 -4
6 -3 8 2 5 6 -3 16 -1 24 5 13 8 13 9 -1 5 -9 -3 -22 -1 -30 4 -11 7 -10 9 6
10 11 0 14 3 8 6 -7 2 -13 9 -13 14 0 6 4 8 9 4 5 -3 12 -1 15 4 4 5 1 13 -5
17 -8 5 -9 3 -4 -6 5 -9 4 -11 -4 -6 -7 5 -9 12 -3 19 5 7 8 31 7 54 -1 35 2
41 17 38 11 -2 16 0 12 6 -3 5 0 17 7 25 7 8 8 14 3 13 -23 -4 -26 2 -8 17 10
8 13 13 7 9 -7 -3 -13 -3 -14 2 0 4 -2 16 -4 26 -2 9 1 15 6 11 5 -3 6 -10 3
-16 -4 -7 -2 -8 4 -4 6 4 8 14 5 23 -5 12 -3 14 7 8 8 -5 11 -4 6 3 -3 6 -2
13 4 17 13 8 13 25 -1 25 -5 0 -8 -4 -4 -9 3 -5 1 -12 -4 -15 -16 -11 -22 11
-6 24 8 7 12 16 9 21 -3 5 0 9 5 9 6 0 10 3 10 8 -5 28 2 44 17 38 15 -6 15
-4 0 18 -11 18 -13 27 -4 32 6 4 8 3 5 -3 -3 -5 1 -10 9 -10 10 0 11 4 4 11
-13 13 -13 29 0 21 6 -3 7 1 4 9 -3 9 -11 13 -18 9 -6 -4 -5 1 3 11 8 9 20 15
27 12 7 -3 16 -1 19 5 4 5 1 8 -6 7 -6 -2 -14 3 -16 10 -3 6 1 12 7 12 7 0 5
6 -4 16 -9 8 -16 20 -16 27 0 6 6 2 14 -9 14 -18 15 -18 13 4 -1 12 -6 22 -12
22 -5 0 -3 5 5 10 13 9 13 10 0 10 -13 0 -13 1 0 10 13 9 13 10 0 10 -13 0
-13 1 0 10 10 6 11 10 3 10 -7 0 -13 5 -13 11 0 5 4 8 8 5 5 -3 9 1 9 9 0 8
-4 15 -8 15 -4 0 -9 7 -13 15 -3 8 -2 14 2 14 4 -1 14 -1 22 0 13 1 13 3 0 10
-8 6 -18 7 -24 4 -5 -3 -6 -1 -2 6 4 6 11 9 16 6 4 -3 7 3 5 12 -1 10 2 24 8
31 8 10 7 12 -2 10 -8 -2 -15 5 -16 15 -3 15 -1 16 11 6 12 -10 13 -9 8 5 -3
9 -10 16 -15 16 -5 0 -9 5 -9 11 0 5 4 8 8 5 5 -3 9 1 9 9 0 8 -4 12 -9 9 -4
-3 -8 0 -8 5 0 6 5 11 11 11 6 0 3 7 -5 16 -20 19 -21 31 -2 15 12 -10 13 -8
9 8 -3 12 -10 18 -16 14 -6 -3 -7 -1 -3 6 4 6 12 9 17 6 5 -4 9 -1 9 4 0 6 -6
11 -12 11 -9 0 -8 4 2 10 13 8 13 10 1 10 -11 0 -10 4 4 13 13 10 15 16 6 21
-6 4 -9 12 -6 17 4 5 2 9 -3 9 -6 0 -13 7 -16 16 -6 14 -4 15 9 4 13 -11 16
-11 13 1 -2 8 -7 17 -11 20 -5 3 -9 12 -10 20 -2 8 -7 21 -12 29 -8 13 -7 13
8 1 9 -7 15 -17 12 -21 -3 -5 -2 -11 3 -14 4 -2 8 6 8 20 0 13 -4 24 -8 24 -4
0 -8 9 -8 21 0 12 -4 17 -11 13 -7 -4 -7 1 1 16 9 17 9 25 0 34 -8 8 -10 7 -5
-5 4 -10 2 -20 -4 -24 -7 -3 -8 0 -5 9 4 10 1 16 -7 16 -11 0 -11 3 1 10 13 9
13 12 -3 24 -14 11 -15 15 -5 19 9 4 8 6 -3 6 -9 1 -20 8 -23 17 -6 15 -4 15
10 3 16 -13 16 -12 5 9 -7 12 -17 20 -23 16 -7 -4 -8 -3 -4 5 4 6 11 9 15 7 4
-3 7 5 6 17 -1 12 3 25 9 29 7 5 6 8 -4 8 -13 0 -13 1 0 11 13 9 13 10 0 6 -8
-2 -14 -14 -14 -26 1 -12 -1 -19 -5 -16 -3 4 -6 16 -6 28 -1 13 -6 21 -14 19
-7 -1 -10 2 -7 7 4 5 -2 14 -11 20 -10 6 -13 11 -7 11 5 0 15 -5 22 -12 9 -9
12 -9 12 -1 0 7 -9 15 -20 18 -11 3 -20 11 -20 17 0 6 -9 8 -20 5 -10 -3 -19
-2 -18 2 2 21 -3 31 -14 25 -7 -4 -4 3 7 16 11 13 14 20 8 16 -7 -4 -21 -2
-30 3 -10 6 -13 11 -7 11 12 0 12 35 -1 64 -5 11 -3 21 4 26 9 5 8 9 -4 13
-10 5 -14 3 -9 -5 5 -7 3 -8 -5 -4 -12 8 -7 20 10 22 5 1 12 2 16 3 3 0 -4 13
-18 27 -22 25 -23 26 -2 15 23 -12 24 -5 8 33 -5 12 -3 21 6 28 10 7 9 8 -7 4
-19 -6 -21 -2 -21 40 -1 27 -6 50 -14 56 -10 7 -8 8 9 5 15 -4 20 -1 15 6 -13
21 -14 58 -3 72 8 10 8 15 -1 21 -8 5 -9 3 -4 -6 5 -9 4 -11 -4 -6 -6 4 -8 12
-4 19 10 16 10 138 -1 144 -5 4 -6 0 -1 -7 6 -9 4 -11 -4 -6 -9 6 -8 13 5 27
21 24 31 25 13 2 -12 -16 -12 -17 2 -6 9 8 15 25 14 42 -1 18 2 28 8 24 6 -4
8 0 4 10 -4 12 -2 14 11 10 15 -6 16 -5 2 12 -9 11 -10 16 -2 11 6 -4 12 -2
12 3 0 6 -4 11 -9 11 -14 0 -21 29 -9 36 6 4 8 3 4 -4 -3 -6 -1 -14 6 -18 7
-4 10 -4 6 1 -4 4 -3 14 3 21 7 8 6 14 -2 20 -8 5 -9 3 -4 -6 5 -9 4 -11 -3
-6 -11 6 -1 37 18 56 3 3 6 15 6 28 1 18 -3 22 -20 17 -20 -5 -20 -4 2 6 12 7
22 16 22 21 0 5 -4 7 -9 3 -5 -3 -13 -1 -16 5 -4 6 -2 9 3 8 6 -2 10 2 10 7 0
6 -4 9 -10 7 -5 -1 -7 2 -3 7 3 6 13 7 23 4 14 -5 13 -2 -3 11 -11 10 -15 15
-9 12 6 -3 11 1 11 9 0 8 -4 12 -9 9 -16 -10 -8 9 10 22 16 12 15 13 -5 9 -30
-5 -29 1 5 20 20 11 21 14 6 10 -14 -4 -24 0 -27 9 -4 10 0 14 13 11 13 -3 17
1 13 11 -3 8 -11 14 -17 14 -7 0 -13 7 -13 15 0 10 4 12 12 5 8 -7 12 -5 12 5
0 8 -5 15 -11 15 -6 0 -4 5 4 10 13 9 13 10 0 10 -13 0 -13 1 0 10 13 9 13 10
0 10 -13 0 -13 1 0 10 10 6 11 10 3 10 -7 0 -13 5 -13 11 0 5 6 7 13 3 6 -4 3
3 -8 16 -11 13 -14 20 -7 16 6 -4 12 -2 12 3 0 6 -5 11 -11 11 -7 0 -4 11 6
28 l18 27 -23 -20 -23 -20 7 23 c5 13 3 29 -4 37 -8 10 -8 15 1 21 8 4 9 3 5
-4 -4 -7 -5 -12 -3 -12 3 0 13 12 22 28 10 15 12 21 4 15 -18 -18 -28 -16 -24
5 1 9 9 16 17 14 20 -3 44 48 27 58 -8 6 -8 9 0 14 6 4 11 13 11 19 0 7 -4 6
-11 -3 -9 -12 -10 -10 -6 8 4 18 2 22 -9 18 -8 -3 -12 -2 -9 3 3 5 1 12 -5 16
-6 4 -8 10 -5 15 3 5 2 11 -3 14 -5 3 -7 22 -4 43 2 21 4 45 4 53 0 8 5 21 11
28 6 7 6 12 1 11 -21 -4 -35 2 -29 11 4 6 10 8 15 5 4 -3 10 2 14 10 3 8 2 14
-2 14 -20 -3 -32 2 -27 11 4 6 11 8 16 5 20 -13 8 14 -13 28 -24 16 -4 19 20
3 11 -7 12 -4 4 10 -5 11 -8 27 -7 37 2 11 -2 17 -13 15 -9 -2 -17 2 -17 7 0
6 -4 17 -10 25 -8 13 -7 13 8 1 9 -7 14 -18 10 -25 -4 -6 1 -5 10 3 18 14 24
26 8 17 -11 -7 -45 30 -37 42 3 5 -6 19 -19 30 -15 13 -22 28 -19 37 4 10 0
15 -12 16 -18 0 -17 1 1 9 11 5 14 9 8 9 -8 1 -13 14 -13 32 0 21 -4 28 -12
23 -8 -5 -7 0 2 11 14 17 13 17 -10 10 -23 -7 -24 -7 -10 11 8 10 11 16 6 12
-5 -4 -15 0 -23 8 -8 8 -19 11 -25 8 -7 -4 -8 -2 -4 4 4 6 13 9 21 5 8 -3 15
0 15 7 0 6 -4 9 -9 5 -5 -3 -12 -1 -16 4 -3 6 -13 8 -23 5 -15 -5 -15 -4 1 6
17 11 17 13 -3 48 -12 20 -14 28 -6 17 16 -19 16 -19 12 5 -2 14 -8 24 -13 23
-5 -1 -10 4 -10 12 0 10 5 11 19 4 24 -13 23 -4 -4 22 -13 12 -17 19 -10 15 7
-4 12 -1 13 8 2 25 4 30 12 44 5 7 5 12 0 11 -19 -3 -33 2 -33 12 0 6 6 9 14
6 18 -7 15 19 -4 36 -11 9 -11 8 0 -8 14 -18 13 -19 -1 -8 -9 7 -18 10 -22 7
-3 -3 -3 4 0 16 5 20 3 21 -18 15 -16 -4 -19 -3 -11 3 10 7 10 11 -3 22 -11 9
-12 16 -5 25 8 9 8 15 0 20 -6 3 -7 11 -4 17 4 6 0 14 -7 19 -11 7 -9 9 6 9
17 0 17 2 5 10 -13 9 -13 10 0 10 11 0 12 2 2 8 -7 5 -14 18 -17 31 -2 12 0
19 6 16 5 -4 7 -10 4 -15 -3 -5 -1 -11 4 -15 6 -3 8 4 6 16 -3 13 -9 25 -15
29 -6 4 -12 16 -15 29 -2 12 0 19 5 16 19 -12 18 13 -1 33 -11 12 -17 22 -13
22 3 0 1 7 -6 15 -7 8 -17 12 -24 8 -6 -4 -5 0 2 9 9 11 10 18 2 23 -5 3 -10
12 -9 18 0 9 2 9 6 0 2 -7 9 -13 15 -13 6 0 5 6 -2 15 -11 14 -15 14 -33 -2
-18 -16 -18 -14 3 17 13 19 17 29 10 23 -8 -7 -18 -13 -22 -13 -11 0 -6 23 7
33 6 5 3 7 -7 3 -21 -6 -33 11 -29 43 2 15 -1 21 -8 17 -6 -4 -11 -2 -11 4 0
6 -5 8 -12 4 -7 -4 -8 -3 -4 4 4 6 14 9 24 6 9 -2 7 1 -5 7 -13 7 -23 16 -23
21 0 5 5 6 10 3 6 -3 10 -1 10 4 0 14 -17 14 -25 1 -4 -6 -11 -8 -16 -4 -6 4
-6 11 2 20 9 11 8 14 -5 14 -9 0 -16 -5 -16 -11 0 -5 -5 -7 -11 -3 -8 5 -6 10
5 16 9 5 16 14 16 19 0 6 -4 8 -8 5 -5 -3 -7 9 -4 27 2 20 0 27 -5 20 -6 -8
-9 0 -10 25 -1 20 4 43 10 51 10 12 9 13 -2 6 -11 -6 -13 -3 -9 13 4 12 2 20
-2 17 -5 -3 -11 -1 -15 5 -3 5 1 10 9 10 8 0 18 5 22 12 4 7 3 8 -4 4 -10 -6
-16 18 -11 50 2 13 -26 23 -46 18 l-20 -6 20 16 c11 9 14 15 6 14 -7 -2 -16 3
-19 11 -2 8 0 11 6 7 6 -3 13 -2 17 3 6 10 -27 7 -45 -4 -6 -4 -9 -1 -8 7 2 7
-2 12 -8 11 -7 -1 -10 6 -7 17 3 12 0 20 -6 20 -7 0 -9 5 -5 13 5 8 2 8 -9 -2
-18 -14 -21 -9 -18 30 1 10 -11 20 -31 27 -18 7 -23 10 -11 8 13 -2 26 1 30 6
3 7 1 8 -6 4 -6 -4 -14 -1 -17 8 -3 9 -12 12 -22 9 -14 -5 -14 -3 2 15 11 12
14 22 8 22 -7 0 -12 -4 -12 -10 0 -5 -5 -10 -11 -10 -5 0 -7 5 -4 10 3 6 1 10
-5 10 -6 0 -21 10 -33 21 -12 12 -17 19 -10 15 18 -10 9 25 -11 39 -9 7 -13
15 -7 16 5 2 11 13 13 24 2 14 -2 19 -14 17 -13 -2 -16 3 -12 23 2 14 0 25 -6
25 -6 0 -8 -4 -5 -10 3 -5 1 -10 -4 -10 -6 0 -11 10 -11 21 0 17 -3 19 -14 10
-11 -9 -16 -9 -22 0 -4 8 -3 9 4 5 7 -4 11 3 9 23 -1 16 -6 27 -11 23 -5 -3
-7 2 -3 11 4 11 2 14 -9 10 -10 -4 -14 2 -14 22 0 21 -4 26 -16 21 -15 -6 -15
-4 -3 11 11 13 11 15 1 9 -9 -5 -15 -1 -19 13 -3 12 -10 21 -15 21 -5 0 -7 4
-3 9 3 5 1 12 -5 16 -6 3 -8 17 -6 31 3 14 0 24 -7 24 -8 0 -8 3 1 12 7 7 12
17 12 22 0 6 -5 4 -10 -4 -9 -13 -10 -13 -11 0 -1 8 -1 18 -1 22 1 3 -5 9 -13
12 -10 3 -12 0 -8 -11 4 -11 2 -14 -5 -9 -7 4 -12 16 -12 27 0 10 -4 19 -10
19 -5 0 -14 10 -21 21 -6 12 -7 19 -2 16 5 -3 9 3 9 13 0 10 -4 16 -8 14 -4
-3 -8 2 -8 11 0 9 -4 13 -10 10 -5 -3 -10 1 -10 9 0 9 -5 16 -11 16 -5 0 -7
-4 -4 -10 3 -6 -1 -7 -10 -3 -13 4 -14 7 -3 14 11 7 10 10 -1 21 -8 7 -11 8
-8 2 3 -6 0 -11 -8 -11 -10 0 -11 5 -5 18 7 12 5 19 -6 23 -10 4 -13 2 -8 -7
5 -8 2 -7 -9 2 -11 9 -15 21 -11 34 4 13 2 17 -5 13 -7 -5 -9 -1 -5 8 4 10 1
16 -9 16 -9 0 -19 4 -22 10 -3 6 1 7 9 4 9 -3 16 -1 16 5 0 6 -8 11 -17 12
-12 1 -10 4 7 9 16 5 19 8 8 9 -25 2 -30 17 -11 37 16 16 16 16 -6 9 -15 -5
-21 -4 -17 3 4 6 -2 16 -11 22 -15 9 -14 10 7 6 14 -3 19 -3 12 0 -6 3 -10 10
-7 14 3 5 -3 7 -13 5 -11 -2 -19 3 -19 10 0 7 7 11 16 8 9 -2 7 1 -4 8 -32 20
-46 37 -48 57 -1 13 -7 17 -23 14 -12 -2 -25 2 -30 10 -9 13 -10 18 -13 38 0
6 -6 10 -12 10 -5 0 -7 -4 -4 -10 3 -5 1 -10 -5 -10 -7 0 -9 7 -6 16 4 9 1 23
-5 30 -13 16 -33 19 -24 4 3 -5 1 -10 -5 -10 -7 0 -9 8 -5 22 6 17 4 20 -9 15
-10 -4 -15 -3 -11 3 3 6 0 13 -9 16 -8 3 -13 14 -11 25 2 10 -1 21 -6 24 -5 4
-6 11 -3 17 4 7 2 8 -4 4 -11 -6 -16 6 -13 27 2 12 -17 8 -23 -5 -3 -7 -3 -3
0 10 3 14 1 22 -7 22 -7 0 -9 3 -6 7 10 9 -13 33 -32 33 -11 -1 -9 -5 8 -14
13 -7 20 -15 15 -18 -5 -3 -20 6 -34 20 -14 13 -19 22 -12 18 19 -11 14 3 -12
31 -22 23 -27 25 -43 13 -15 -12 -16 -12 -5 0 17 20 15 31 -5 28 -10 -2 -18 3
-18 12 -1 8 -7 14 -15 12 -11 -3 -11 0 0 13 7 8 10 18 6 22 -3 3 -6 1 -6 -5 0
-7 -5 -12 -11 -12 -5 0 -7 5 -4 10 3 6 -1 10 -10 10 -9 0 -13 5 -9 11 4 8 0 9
-15 4 -14 -4 -21 -3 -19 5 2 7 -5 14 -15 15 -9 2 -15 -1 -11 -6 3 -5 10 -6 16
-3 7 4 8 2 4 -4 -8 -13 -36 -5 -36 12 0 6 -5 4 -10 -4 -8 -12 -10 -11 -10 8 0
13 -6 22 -16 22 -8 0 -13 4 -10 8 2 4 1 14 -5 22 -5 9 -9 10 -9 4 0 -7 -7 -15
-16 -18 -10 -4 -13 -2 -8 6 5 8 2 9 -10 5 -10 -4 -15 -3 -11 3 5 9 -6 14 -26
12 -3 -1 -6 6 -6 13 0 11 4 12 13 4 8 -7 14 -6 20 2 4 7 3 9 -4 5 -6 -3 -13
-2 -17 3 -3 6 -12 8 -21 4 -8 -3 -22 1 -32 9 -21 19 -55 31 -47 18 3 -6 12
-10 20 -10 19 0 28 -17 14 -26 -7 -4 -9 -3 -6 3 6 9 -26 27 -44 24 -4 0 -5 9
-2 19 6 22 -11 27 -23 8 -5 -7 -3 -8 6 -3 9 5 11 4 6 -3 -12 -19 -26 -14 -26
11 0 17 -2 19 -9 7 -6 -8 -7 -19 -3 -25 3 -5 -2 -4 -11 4 -18 15 -23 26 -7 16
16 -10 11 1 -7 16 -9 8 -14 9 -10 3 4 -7 0 -14 -8 -18 -8 -3 -17 -1 -20 4 -4
6 -1 10 5 10 6 0 8 5 5 10 -5 8 -11 7 -21 -1 -10 -8 -14 -8 -14 0 0 6 -5 11
-11 11 -5 0 -7 -6 -3 -12 5 -9 2 -9 -9 1 -9 7 -17 20 -17 27 0 8 -6 11 -17 7
-12 -5 -14 -3 -8 8 7 11 5 11 -10 -1 -11 -9 -16 -10 -11 -2 4 7 2 12 -5 12 -8
0 -7 5 2 18 12 15 12 16 -2 5 -9 -7 -20 -9 -24 -5 -5 4 -5 2 -2 -4 3 -6 0 -11
-9 -11 -10 0 -12 7 -8 21 3 12 2 17 -3 11 -16 -20 -52 -35 -58 -25 -4 6 -1 9
6 8 6 -2 13 2 16 8 2 7 -6 10 -23 6 -21 -4 -25 -2 -19 9 8 12 6 12 -8 0 -15
-12 -17 -11 -17 3 0 9 6 16 13 17 6 0 -3 7 -20 15 -18 8 -33 19 -33 25 0 5 -5
7 -12 3 -7 -5 -8 -3 -3 6 6 10 11 9 21 -5 12 -16 13 -16 11 3 0 11 -5 18 -9
16 -4 -3 -8 0 -8 6 0 6 -4 8 -10 5 -5 -3 -10 -1 -10 4 0 6 5 11 12 11 6 0 9 3
5 6 -3 3 -12 2 -19 -2 -19 -12 -39 -14 -32 -3 3 5 10 7 15 4 5 -3 6 1 3 9 -3
9 -10 16 -16 16 -5 0 -6 -4 -3 -10 3 -5 -1 -10 -10 -10 -9 0 -13 5 -10 10 3 6
1 11 -4 11 -6 1 -15 2 -21 3 -13 1 -13 21 -1 21 5 0 13 4 18 9 5 5 3 6 -4 2
-7 -4 -13 -2 -13 4 0 6 -5 8 -12 4 -8 -5 -7 0 2 11 9 11 10 16 3 11 -15 -9
-17 5 -3 22 7 9 7 9 -2 2 -19 -16 -30 -12 -23 9 6 21 -17 35 -54 32 -14 -2
-21 1 -17 8 4 7 1 8 -8 5 -10 -4 -16 -1 -16 7 0 7 -3 10 -6 7 -3 -4 -1 -15 5
-25 8 -15 7 -20 -4 -20 -8 0 -12 5 -9 11 3 6 -2 2 -12 -9 -15 -18 -16 -18 -10
-2 5 15 2 17 -15 12 -15 -5 -19 -4 -15 4 4 6 3 11 -3 11 -5 0 -13 -4 -16 -10
-3 -5 -11 -10 -17 -10 -6 0 -5 7 3 17 10 11 10 14 2 9 -7 -4 -13 -3 -13 2 0 6
-7 13 -16 16 -13 5 -14 4 -6 -7 9 -10 8 -14 -3 -14 -8 0 -15 9 -15 19 0 10 -5
18 -11 18 -12 0 -46 31 -41 38 2 2 0 7 -4 10 -4 4 -4 1 1 -7 6 -11 3 -13 -13
-9 -12 4 -20 2 -16 -3 3 -5 1 -9 -5 -9 -5 0 -12 6 -14 13 -3 7 -6 6 -6 -5 -1
-9 -5 -19 -10 -22 -5 -4 -7 3 -4 14 4 15 0 20 -16 20 -11 0 -21 5 -21 10 0 6
-6 10 -12 10 -7 -1 -2 -10 11 -20 13 -11 19 -20 14 -20 -13 0 -53 39 -53 51 0
6 -10 9 -22 7 -16 -2 -22 2 -20 12 3 12 1 13 -9 3 -15 -15 -33 -17 -24 -4 3 6
-5 15 -17 21 -22 11 -22 10 -4 -4 11 -9 15 -16 9 -16 -16 0 -33 24 -35 53 -1
14 -6 23 -10 21 -5 -3 -5 -10 -2 -16 4 -7 2 -8 -4 -4 -6 4 -9 13 -5 21 3 8 1
15 -3 16 -5 0 -19 2 -31 5 -12 2 -25 -1 -28 -6 -4 -6 1 -7 12 -3 16 6 16 4 -2
-17 -11 -13 -15 -20 -9 -17 7 4 15 0 18 -8 3 -9 1 -15 -7 -14 -26 3 -48 -1
-43 -9 3 -5 -1 -9 -8 -9 -7 0 -13 6 -13 13 0 7 5 10 11 7 6 -3 7 -2 3 2 -10
12 -38 15 -31 4 3 -5 0 -9 -5 -9 -6 0 -11 5 -11 10 0 6 -5 10 -11 10 -5 0 -7
-4 -4 -10 3 -5 1 -10 -4 -10 -6 0 -11 6 -11 14 0 8 -4 18 -10 21 -6 4 -7 -1
-3 -12 6 -17 5 -17 -15 1 -12 11 -22 16 -22 11 0 -4 -6 -2 -13 4 -8 6 -17 8
-20 4 -4 -3 -14 0 -24 8 -9 8 -14 9 -10 3 4 -7 -3 -14 -18 -16 -18 -4 -23 -2
-16 6 7 8 4 12 -10 13 -11 1 -17 -2 -14 -8 10 -15 -2 -10 -16 8 -10 11 -10 14
-1 9 6 -4 12 -3 12 3 0 5 -9 13 -20 16 -11 3 -20 12 -20 18 0 8 -15 12 -40 11
-21 0 -37 3 -34 8 3 4 10 5 16 2 7 -4 8 -2 4 5 -4 7 -13 10 -19 8 -7 -2 -22 0
-34 4 -13 5 -22 5 -22 1 3 -21 -3 -24 -16 -6 -13 18 -14 18 -9 -6 4 -21 3 -22
-5 -8 -6 9 -19 15 -29 13 -9 -2 -23 -4 -30 -4 -8 -1 -10 -6 -6 -13 4 -7 -3 -3
-15 10 -26 27 -35 28 -22 4 7 -14 6 -19 -4 -19 -8 0 -13 5 -12 11 1 5 -7 10
-18 10 -11 0 -24 5 -28 11 -6 6 -7 4 -4 -6 3 -9 1 -22 -5 -30 -8 -11 -9 -10
-4 3 3 12 -2 22 -17 29 -21 12 -21 11 -7 -6 13 -16 13 -18 0 -10 -8 5 -45 10
-83 11 -46 1 -72 6 -78 15 -8 12 -11 12 -19 -1 -5 -8 -10 -10 -10 -4 0 5 6 16
13 23 6 7 8 12 2 11 -22 -5 -29 1 -15 10 11 7 6 9 -17 6 -31 -3 -64 17 -50 31
4 3 9 -2 13 -11 3 -9 10 -13 16 -10 15 10 -24 32 -49 28 -18 -3 -21 -1 -17 13
5 14 4 15 -4 4 -11 -16 -36 -5 -26 11 4 7 2 8 -5 4 -6 -4 -9 -11 -7 -15 3 -4
-4 -8 -15 -8 -18 -2 -19 0 -7 15 12 16 11 16 -6 2 -11 -8 -20 -15 -20 -14 -1
0 -12 7 -26 14 l-25 13 20 -24 c14 -16 15 -20 3 -10 -9 7 -23 9 -29 5 -8 -4
-9 -3 -5 4 6 11 0 14 -20 11 -4 0 -11 5 -16 13 -7 9 -8 7 -5 -10 3 -12 1 -20
-4 -16 -5 3 -9 12 -9 21 0 9 -6 13 -14 10 -7 -3 -19 0 -25 6 -9 9 -10 7 -5 -8
7 -18 6 -19 -11 -5 -11 9 -16 10 -11 3 4 -7 2 -13 -3 -13 -6 0 -11 6 -11 13 0
8 -4 7 -10 -3 -9 -13 -10 -13 -11 0 0 10 -3 8 -9 -5 -7 -17 -9 -17 -9 -2 -1 9
-6 17 -12 17 -5 0 -8 -4 -5 -9 8 -12 -37 -8 -46 4 -4 6 -8 1 -9 -10 l0 -20 -9
20 c-6 14 -9 15 -10 5 -1 -10 -4 -9 -10 5 -8 19 -9 19 -9 1 -1 -20 -1 -20 -17
0 -8 10 -13 14 -10 8 3 -7 -1 -17 -9 -24 -13 -11 -14 -10 -9 5 6 15 4 16 -15
6 -12 -7 -18 -17 -15 -23 4 -7 3 -8 -4 -4 -6 4 -9 13 -6 20 3 8 1 17 -5 21 -6
3 -12 4 -12 1z m-819 -96 c6 -11 8 -20 6 -20 -3 0 -10 9 -16 20 -6 11 -8 20
-6 20 3 0 10 -9 16 -20z m-70 -20 c0 -5 -5 -10 -11 -10 -5 0 -7 5 -4 10 3 6 8
10 11 10 2 0 4 -4 4 -10z m1615 -58 c-3 -3 -11 0 -18 7 -9 10 -8 11 6 5 10 -3
15 -9 12 -12z m39 10 c3 -5 -1 -9 -9 -9 -8 0 -12 4 -9 9 3 4 7 8 9 8 2 0 6 -4
9 -8z m50 0 c3 -5 -1 -9 -9 -9 -8 0 -15 4 -15 9 0 4 4 8 9 8 6 0 12 -4 15 -8z
m190 0 c3 -5 -1 -9 -9 -9 -8 0 -12 4 -9 9 3 4 7 8 9 8 2 0 6 -4 9 -8z m93 2
c-3 -3 -12 -4 -19 -1 -8 3 -5 6 6 6 11 1 17 -2 13 -5z m217 -92 c3 -5 -1 -9
-9 -9 -8 0 -12 4 -9 9 3 4 7 8 9 8 2 0 6 -4 9 -8z m31 -2 c3 -5 1 -10 -4 -10
-6 0 -11 5 -11 10 0 6 2 10 4 10 3 0 8 -4 11 -10z m-2652 -15 c-3 -9 -8 -14
-10 -11 -3 3 -2 9 2 15 9 16 15 13 8 -4z m2681 -1 c3 -8 2 -12 -4 -9 -6 3 -10
10 -10 16 0 14 7 11 14 -7z m-2604 2 c0 -2 -7 -7 -16 -10 -8 -3 -12 -2 -9 4 6
10 25 14 25 6z m2905 -66 c-3 -5 -12 -10 -18 -10 -7 0 -6 4 3 10 19 12 23 12
15 0z m206 -67 c13 -16 12 -17 -3 -4 -10 7 -18 15 -18 17 0 8 8 3 21 -13z
m278 -66 c8 -10 7 -14 -2 -14 -8 0 -14 6 -14 14 0 7 1 13 2 13 2 0 8 -6 14
-13z m-4955 -448 c-3 -5 -10 -7 -15 -3 -5 3 -7 10 -3 15 3 5 10 7 15 3 5 -3 7
-10 3 -15z m-97 -44 c0 -8 -4 -12 -9 -9 -5 3 -6 10 -3 15 9 13 12 11 12 -6z
m5830 -21 c-3 -3 -12 -4 -19 -1 -8 3 -5 6 6 6 11 1 17 -2 13 -5z m217 -142 c3
-5 -1 -9 -9 -9 -8 0 -12 4 -9 9 3 4 7 8 9 8 2 0 6 -4 9 -8z m131 -162 c3 -5 1
-10 -4 -10 -6 0 -11 5 -11 10 0 6 2 10 4 10 3 0 8 -4 11 -10z m-6503 -67 c-6
-2 -9 -10 -6 -15 4 -7 2 -8 -5 -4 -13 9 -5 26 12 25 9 0 8 -2 -1 -6z m-238
-248 c-4 -8 -8 -15 -10 -15 -2 0 -4 7 -4 15 0 8 4 15 10 15 5 0 7 -7 4 -15z
m7141 -275 c3 -5 1 -10 -4 -10 -6 0 -11 5 -11 10 0 6 2 10 4 10 3 0 8 -4 11
-10z m-7569 -302 c-9 -5 -13 -14 -10 -20 4 -7 2 -8 -4 -4 -9 5 -9 13 -2 27 6
11 16 17 22 13 7 -4 5 -10 -6 -16z m7758 -64 c5 -14 4 -15 -9 -4 -17 14 -19
20 -6 20 5 0 12 -7 15 -16z m93 -170 c-3 -3 -12 -4 -19 -1 -8 3 -5 6 6 6 11 1
17 -2 13 -5z m-7977 -24 c0 -5 -5 -10 -11 -10 -5 0 -8 -4 -4 -9 3 -5 1 -12 -5
-16 -6 -4 -8 -10 -5 -15 3 -5 1 -11 -4 -14 -7 -5 -8 22 -1 32 3 3 7 19 9 32 0
6 6 10 11 10 6 0 10 -4 10 -10z m8090 -124 c0 -2 -8 -10 -17 -17 -16 -13 -17
-12 -4 4 13 16 21 21 21 13z m-8199 -163 c13 -16 12 -17 -3 -4 -17 13 -22 21
-14 21 2 0 10 -8 17 -17z m8549 -578 c11 -13 10 -14 -4 -9 -9 3 -16 10 -16 15
0 13 6 11 20 -6z m85 -374 c3 -5 2 -12 -3 -15 -5 -3 -9 1 -9 9 0 17 3 19 12 6z
m-8954 -54 c-10 -9 -11 -8 -5 6 3 10 9 15 12 12 3 -3 0 -11 -7 -18z m9093
-365 c3 -5 -1 -9 -9 -9 -8 0 -15 4 -15 9 0 4 4 8 9 8 6 0 12 -4 15 -8z m-9224
-61 c0 -5 -7 -12 -16 -15 -14 -5 -15 -4 -4 9 14 17 20 19 20 6z m9304 -436
c-7 -16 -24 -21 -24 -6 0 8 7 13 27 20 1 1 0 -6 -3 -14z m-9349 -45 c-3 -5
-11 -10 -16 -10 -6 0 -7 5 -4 10 3 6 11 10 16 10 6 0 7 -4 4 -10z m-33 -172
c-6 -6 -8 -18 -5 -27 5 -13 3 -14 -7 -4 -10 9 -10 15 -2 26 7 8 8 18 4 22 -4
5 -1 5 6 0 9 -5 10 -11 4 -17z m9362 -363 c-4 -8 -11 -15 -16 -15 -6 0 -5 6 2
15 7 8 14 15 16 15 2 0 1 -7 -2 -15z m-9195 -258 c8 -10 7 -14 -2 -14 -8 0
-14 6 -14 14 0 7 1 13 2 13 2 0 8 -6 14 -13z m9128 -72 c0 -8 -4 -12 -9 -9 -5
3 -6 10 -3 15 9 13 12 11 12 -6z m24 -312 c13 -16 12 -17 -3 -4 -17 13 -22 21
-14 21 2 0 10 -8 17 -17z m-9096 -41 c-3 -3 -11 0 -18 7 -9 10 -8 11 6 5 10
-3 15 -9 12 -12z m9100 -12 c3 -6 -1 -7 -9 -4 -18 7 -21 14 -7 14 6 0 13 -4
16 -10z m1 -97 c-2 -9 -9 -19 -17 -21 -12 -3 -12 -2 0 6 9 7 10 12 2 16 -6 4
-9 12 -5 17 8 14 23 1 20 -18z m-9396 -543 c0 -5 -5 -10 -11 -10 -5 0 -7 5 -4
10 3 6 8 10 11 10 2 0 4 -4 4 -10z m5 -29 c3 -5 2 -12 -3 -15 -5 -3 -9 1 -9 9
0 17 3 19 12 6z m9602 -7 c-3 -3 -12 -4 -19 -1 -8 3 -5 6 6 6 11 1 17 -2 13
-5z m-9602 -82 c-3 -3 -11 0 -18 7 -9 10 -8 11 6 5 10 -3 15 -9 12 -12z m5
-46 c0 -11 -19 -15 -25 -6 -3 5 1 10 9 10 9 0 16 -2 16 -4z m-6 -56 c-6 -6
-10 -3 -10 10 0 13 4 16 10 10 7 -7 7 -13 0 -20z m1 -79 c3 -5 2 -12 -3 -15
-5 -3 -9 1 -9 9 0 17 3 19 12 6z m0 -120 c3 -5 2 -12 -3 -15 -5 -3 -9 1 -9 9
0 17 3 19 12 6z m4 -58 c-6 -7 -15 -10 -20 -7 -13 8 -3 21 15 21 12 0 13 -4 5
-14z m1 -97 c0 -2 -7 -7 -16 -10 -8 -3 -12 -2 -9 4 6 10 25 14 25 6z m-10 -76
c0 -5 -2 -10 -4 -10 -3 0 -8 5 -11 10 -3 6 -1 10 4 10 6 0 11 -4 11 -10z
m9450 -720 c0 -5 -2 -10 -4 -10 -3 0 -8 5 -11 10 -3 6 -1 10 4 10 6 0 11 -4
11 -10z m-9303 -576 c-3 -3 -12 -4 -19 -1 -8 3 -5 6 6 6 11 1 17 -2 13 -5z
m113 -218 c0 -2 -8 -10 -17 -17 -16 -13 -17 -12 -4 4 13 16 21 21 21 13z m160
-171 c7 -9 8 -15 2 -15 -5 0 -12 7 -16 15 -3 8 -4 15 -2 15 2 0 9 -7 16 -15z
m237 -87 c-3 -8 -6 -5 -6 6 -1 11 2 17 5 13 3 -3 4 -12 1 -19z m33 -2 c0 -3
-4 -8 -10 -11 -5 -3 -10 -1 -10 4 0 6 5 11 10 11 6 0 10 -2 10 -4z m165 -107
c11 -16 1 -19 -13 -3 -7 8 -8 14 -3 14 5 0 13 -5 16 -11z m12 -104 c0 -8 -4
-12 -9 -9 -5 3 -6 10 -3 15 9 13 12 11 12 -6z m7754 -582 c13 -16 12 -17 -3
-4 -17 13 -22 21 -14 21 2 0 10 -8 17 -17z m-7416 -1033 c3 -5 1 -10 -4 -10
-6 0 -11 5 -11 10 0 6 2 10 4 10 3 0 8 -4 11 -10z m55 -220 c-8 -5 -19 -10
-25 -10 -5 0 -3 5 5 10 8 5 20 10 25 10 6 0 3 -5 -5 -10z m6 -165 c-1 -8 -5
-17 -8 -21 -5 -4 -4 16 1 34 3 9 9 -1 7 -13z m20 -91 c1 -9 0 -13 -4 -10 -3 4
-7 14 -8 22 -1 9 0 13 4 10 3 -4 7 -14 8 -22z m7190 -490 c1 -9 0 -13 -4 -10
-3 4 -7 14 -8 22 -1 9 0 13 4 10 3 -4 7 -14 8 -22z m-7179 -1 c0 -9 -4 -10
-14 -2 -7 6 -13 12 -13 14 0 1 6 2 13 2 8 0 14 -6 14 -14z m17 -411 c2 -4 -4
-8 -14 -8 -10 0 -16 4 -14 8 3 4 9 8 14 8 5 0 11 -4 14 -8z m7246 -376 c0 -3
-4 -8 -10 -11 -5 -3 -10 -1 -10 4 0 6 5 11 10 11 6 0 10 -2 10 -4z m-7252 -91
c-3 -3 -9 2 -12 12 -6 14 -5 15 5 6 7 -7 10 -15 7 -18z m-218 -374 c0 -5 -8
-15 -17 -22 -16 -12 -17 -12 -6 2 7 9 10 19 6 22 -3 4 -1 7 5 7 7 0 12 -4 12
-9z m7681 -24 c-1 -12 -15 -9 -19 4 -3 6 1 10 8 8 6 -3 11 -8 11 -12z m-7713
-31 c-7 -8 -15 -12 -17 -11 -5 6 10 25 20 25 5 0 4 -6 -3 -14z m-45 -60 c4
-10 1 -13 -8 -9 -8 3 -12 9 -9 14 7 12 11 11 17 -5z m7771 -64 c3 -5 -1 -9 -9
-9 -8 0 -12 4 -9 9 3 4 7 8 9 8 2 0 6 -4 9 -8z m-7817 -72 c-1 -11 -5 -20 -9
-20 -10 0 -10 4 -2 24 8 22 13 20 11 -4z m-237 -326 c0 -8 -5 -12 -10 -9 -6 4
-8 11 -5 16 9 14 15 11 15 -7z m-30 -80 c0 -8 -19 -13 -24 -6 -3 5 1 9 9 9 8
0 15 -2 15 -3z m-64 -36 c4 -7 3 -8 -4 -4 -11 6 -16 -5 -13 -26 0 -4 -6 -5
-13 -2 -12 5 -12 9 2 25 19 22 19 22 28 7z m-115 -125 c13 -16 12 -17 -3 -4
-10 7 -18 15 -18 17 0 8 8 3 21 -13z m-142 -134 c-22 -13 -31 -11 -17 5 7 8
17 12 22 9 4 -3 2 -9 -5 -14z m-129 -183 c0 -3 -4 -8 -10 -11 -5 -3 -10 -1
-10 4 0 6 5 11 10 11 6 0 10 -2 10 -4z m9345 -35 c3 -5 2 -12 -3 -15 -5 -3 -9
1 -9 9 0 17 3 19 12 6z m399 -167 c3 -8 2 -12 -4 -9 -6 3 -10 10 -10 16 0 14
7 11 14 -7z m-10264 -4 c0 -5 -5 -10 -11 -10 -5 0 -7 5 -4 10 3 6 8 10 11 10
2 0 4 -4 4 -10z m10449 -74 c0 -7 -2 -6 -6 2 -2 6 -8 10 -12 8 -4 -3 -8 1 -8
9 0 11 4 12 14 4 7 -6 13 -17 12 -23z m36 -6 c-3 -5 -12 -10 -18 -10 -7 0 -6
4 3 10 19 12 23 12 15 0z m-10865 -36 c0 -8 -19 -13 -24 -6 -3 5 1 9 9 9 8 0
15 -2 15 -3z m11255 -94 c-3 -5 -12 -10 -18 -10 -7 0 -6 4 3 10 19 12 23 12
15 0z m81 -32 c4 -7 3 -8 -4 -4 -7 4 -12 2 -12 -5 0 -7 -3 -10 -6 -6 -6 5 3
27 11 27 2 0 7 -5 11 -12z m-11642 -100 c-9 -14 -23 2 -17 18 4 12 8 13 14 3
4 -7 5 -17 3 -21z m-559 -87 c3 -5 2 -12 -3 -15 -5 -3 -9 1 -9 9 0 17 3 19 12
6z m12785 -92 c0 -5 -4 -9 -8 -9 -5 0 -9 7 -9 15 0 8 4 12 9 9 4 -3 8 -9 8
-15z m-13203 -54 c0 -8 -4 -12 -9 -9 -5 3 -6 10 -3 15 9 13 12 11 12 -6z
m-197 -85 c0 -5 -5 -10 -11 -10 -5 0 -7 5 -4 10 3 6 8 10 11 10 2 0 4 -4 4
-10z m-89 -37 c-12 -20 -14 -14 -5 12 4 9 9 14 11 11 3 -2 0 -13 -6 -23z m-31
-23 c0 -5 -2 -10 -4 -10 -3 0 -8 5 -11 10 -3 6 -1 10 4 10 6 0 11 -4 11 -10z
m14085 -110 c-3 -5 -12 -10 -18 -10 -7 0 -6 4 3 10 19 12 23 12 15 0z m30 1
c3 -5 1 -12 -5 -16 -5 -3 -10 1 -10 9 0 18 6 21 15 7z m28 -14 c3 -8 -1 -14
-8 -14 -7 0 -11 6 -8 14 3 7 6 13 8 13 2 0 5 -6 8 -13z m-14883 -137 c-8 -5
-17 -7 -19 -4 -3 3 1 9 9 14 8 5 17 7 19 4 3 -3 -1 -9 -9 -14z m-265 -80 c3
-5 1 -10 -4 -10 -6 0 -11 5 -11 10 0 6 2 10 4 10 3 0 8 -4 11 -10z m-135 -46
c0 -8 -19 -13 -24 -6 -3 5 1 9 9 9 8 0 15 -2 15 -3z m16055 -44 c3 -5 1 -10
-4 -10 -6 0 -11 5 -11 10 0 6 2 10 4 10 3 0 8 -4 11 -10z m28 -13 c3 -8 -1
-14 -8 -14 -7 0 -11 6 -8 14 3 7 6 13 8 13 2 0 5 -6 8 -13z m229 -99 c-7 -7
-12 -8 -12 -2 0 14 12 26 19 19 2 -3 -1 -11 -7 -17z m288 -58 c0 -5 -7 -7 -15
-4 -8 4 -12 10 -9 15 6 11 24 2 24 -11z"/>
<path d="M11580 22516 c0 -2 8 -10 18 -17 15 -13 16 -12 3 4 -13 16 -21 21
-21 13z"/>
<path d="M11795 22500 c-3 -5 -3 -15 0 -20 8 -13 35 6 34 24 0 7 -2 6 -6 -1
-2 -7 -9 -13 -14 -13 -6 0 -7 5 -4 10 3 6 4 10 1 10 -3 0 -8 -4 -11 -10z"/>
<path d="M9981 22064 c0 -11 3 -14 6 -6 3 7 2 16 -1 19 -3 4 -6 -2 -5 -13z"/>
<path d="M9846 22003 c-6 -14 -5 -15 5 -6 7 7 10 15 7 18 -3 3 -9 -2 -12 -12z"/>
<path d="M15336 21091 c-3 -5 1 -12 10 -15 22 -8 25 -4 9 11 -8 7 -16 9 -19 4z"/>
<path d="M8360 20811 c0 -6 4 -13 10 -16 6 -3 7 1 4 9 -7 18 -14 21 -14 7z"/>
<path d="M15716 20448 c3 -5 10 -6 15 -3 13 9 11 12 -6 12 -8 0 -12 -4 -9 -9z"/>
<path d="M15737 20434 c-8 -8 3 -34 15 -34 7 0 6 5 -1 13 -6 8 -8 17 -4 20 3
4 4 7 1 7 -2 0 -7 -3 -11 -6z"/>
<path d="M7975 20290 c-3 -5 -2 -10 4 -10 5 0 13 5 16 10 3 6 2 10 -4 10 -5 0
-13 -4 -16 -10z"/>
<path d="M7923 20195 c0 -8 4 -12 9 -9 5 3 6 10 3 15 -9 13 -12 11 -12 -6z"/>
<path d="M16160 19651 c0 -6 4 -13 10 -16 6 -3 7 1 4 9 -7 18 -14 21 -14 7z"/>
<path d="M16256 19423 c-6 -14 -5 -15 5 -6 7 7 10 15 7 18 -3 3 -9 -2 -12 -12z"/>
<path d="M7645 19341 c-3 -5 -2 -12 3 -15 5 -3 9 1 9 9 0 17 -3 19 -12 6z"/>
<path d="M16325 19301 c-3 -5 0 -13 6 -17 7 -4 9 -3 5 4 -3 5 0 13 6 15 9 4
10 6 1 6 -6 1 -14 -3 -18 -8z"/>
<path d="M7514 18999 c-3 -6 -2 -15 3 -20 5 -5 9 -1 9 11 0 23 -2 24 -12 9z"/>
<path d="M16375 18990 c3 -5 8 -10 11 -10 2 0 4 5 4 10 0 6 -5 10 -11 10 -5 0
-7 -4 -4 -10z"/>
<path d="M7375 18610 c4 -6 11 -8 16 -5 14 9 11 15 -7 15 -8 0 -12 -5 -9 -10z"/>
<path d="M16555 18481 c-3 -5 -2 -12 3 -15 5 -3 9 1 9 9 0 17 -3 19 -12 6z"/>
<path d="M16627 18085 c-6 -15 10 -32 20 -21 4 3 1 6 -5 6 -6 0 -9 7 -6 15 4
8 4 15 1 15 -3 0 -7 -7 -10 -15z"/>
<path d="M7346 17385 c4 -8 11 -15 16 -15 6 0 5 6 -2 15 -7 8 -14 15 -16 15
-2 0 -1 -7 2 -15z"/>
<path d="M7405 17171 c-3 -5 -2 -12 3 -15 5 -3 9 1 9 9 0 17 -3 19 -12 6z"/>
<path d="M16607 17166 c-4 -10 -1 -13 9 -9 7 3 14 9 14 14 0 14 -17 10 -23 -5z"/>
<path d="M7434 16886 c0 -12 6 -23 13 -23 9 0 10 4 3 12 -5 7 -7 14 -4 17 3 3
1 8 -3 11 -5 3 -9 -5 -9 -17z"/>
<path d="M7476 16792 c-3 -5 1 -9 9 -9 8 0 12 4 9 9 -3 4 -7 8 -9 8 -2 0 -6
-4 -9 -8z"/>
<path d="M7195 16231 c-3 -5 -2 -12 3 -15 5 -3 9 1 9 9 0 17 -3 19 -12 6z"/>
<path d="M7193 14965 c0 -8 4 -12 9 -9 5 3 6 10 3 15 -9 13 -12 11 -12 -6z"/>
<path d="M7198 14803 c7 -3 16 -2 19 1 4 3 -2 6 -13 5 -11 0 -14 -3 -6 -6z"/>
<path d="M7190 14696 c0 -2 7 -7 16 -10 8 -3 12 -2 9 4 -6 10 -25 14 -25 6z"/>
<path d="M7197 14619 c7 -7 15 -10 18 -7 3 3 -2 9 -12 12 -14 6 -15 5 -6 -5z"/>
<path d="M7231 14534 c0 -11 3 -14 6 -6 3 7 2 16 -1 19 -3 4 -6 -2 -5 -13z"/>
<path d="M7260 14175 c0 0 9 -8 19 -17 18 -16 20 -15 18 1 0 9 -9 17 -19 17
-10 0 -18 -1 -18 -1z"/>
<path d="M7405 13890 c-3 -5 -1 -10 4 -10 6 0 11 5 11 10 0 6 -2 10 -4 10 -3
0 -8 -4 -11 -10z"/>
<path d="M16400 13711 c0 -6 4 -13 10 -16 6 -3 7 1 4 9 -7 18 -14 21 -14 7z"/>
<path d="M16386 13663 c-6 -14 -5 -15 5 -6 7 7 10 15 7 18 -3 3 -9 -2 -12 -12z"/>
<path d="M7953 13564 c0 -7 3 -12 6 -12 3 1 14 -2 24 -7 29 -12 28 -1 -2 16
-21 12 -28 13 -28 3z"/>
<path d="M15995 13310 c-26 -28 -15 -31 12 -3 12 13 19 23 14 23 -4 0 -16 -9
-26 -20z"/>
<path d="M8110 13070 c0 -5 5 -10 11 -10 5 0 7 5 4 10 -3 6 -8 10 -11 10 -2 0
-4 -4 -4 -10z"/>
<path d="M15813 13005 c0 -8 4 -12 9 -9 4 3 8 9 8 15 0 5 -4 9 -8 9 -5 0 -9
-7 -9 -15z"/>
<path d="M8138 12883 c7 -3 16 -2 19 1 4 3 -2 6 -13 5 -11 0 -14 -3 -6 -6z"/>
<path d="M8156 12832 c-3 -5 1 -9 9 -9 8 0 12 4 9 9 -3 4 -7 8 -9 8 -2 0 -6
-4 -9 -8z"/>
<path d="M15833 12595 c0 -8 4 -12 9 -9 5 3 6 10 3 15 -9 13 -12 11 -12 -6z"/>
<path d="M15666 11992 c-3 -5 1 -9 9 -9 8 0 12 4 9 9 -3 4 -7 8 -9 8 -2 0 -6
-4 -9 -8z"/>
<path d="M15655 11931 c-3 -5 -2 -12 3 -15 5 -3 9 1 9 9 0 17 -3 19 -12 6z"/>
<path d="M8410 11590 c0 -5 5 -10 11 -10 5 0 7 5 4 10 -3 6 -8 10 -11 10 -2 0
-4 -4 -4 -10z"/>
<path d="M15644 11418 c-4 -6 0 -16 9 -23 9 -7 15 -14 12 -17 -3 -2 2 -5 12
-5 13 0 12 4 -6 18 -12 10 -20 23 -16 29 3 5 4 10 1 10 -3 0 -8 -5 -12 -12z"/>
<path d="M8420 11409 c0 -5 5 -7 10 -4 6 3 10 8 10 11 0 2 -4 4 -10 4 -5 0
-10 -5 -10 -11z"/>
<path d="M8447 11229 c7 -7 15 -10 18 -7 3 3 -2 9 -12 12 -14 6 -15 5 -6 -5z"/>
<path d="M15680 11061 c0 -6 4 -13 10 -16 6 -3 7 1 4 9 -7 18 -14 21 -14 7z"/>
<path d="M8473 10575 c0 -8 4 -12 9 -9 5 3 6 10 3 15 -9 13 -12 11 -12 -6z"/>
<path d="M8480 10300 c-9 -6 -10 -10 -3 -10 6 0 15 5 18 10 8 12 4 12 -15 0z"/>
<path d="M8475 10151 c-3 -5 -2 -12 3 -15 5 -3 9 1 9 9 0 17 -3 19 -12 6z"/>
<path d="M15720 10091 c0 -6 4 -13 10 -16 6 -3 7 1 4 9 -7 18 -14 21 -14 7z"/>
<path d="M16377 8799 c7 -7 15 -10 18 -7 3 3 -2 9 -12 12 -14 6 -15 5 -6 -5z"/>
<path d="M16470 8696 c0 -2 7 -9 15 -16 13 -11 14 -10 9 4 -5 14 -24 23 -24
12z"/>
<path d="M16620 8556 c0 -2 8 -10 18 -17 15 -13 16 -12 3 4 -13 16 -21 21 -21
13z"/>
<path d="M7510 8530 c0 -5 5 -10 11 -10 5 0 7 5 4 10 -3 6 -8 10 -11 10 -2 0
-4 -4 -4 -10z"/>
<path d="M16725 8450 c3 -5 8 -10 11 -10 2 0 4 5 4 10 0 6 -5 10 -11 10 -5 0
-7 -4 -4 -10z"/>
<path d="M7386 8404 c-11 -8 -16 -14 -10 -14 13 0 39 18 34 24 -3 2 -14 -2
-24 -10z"/>
<path d="M17000 8294 c0 -20 27 -37 36 -23 4 7 3 9 -4 5 -6 -3 -15 2 -21 11
-6 10 -11 13 -11 7z"/>
<path d="M6860 8180 c-8 -5 -12 -12 -9 -15 4 -3 12 1 19 10 14 17 11 19 -10 5z"/>
<path d="M6264 7942 c3 -5 0 -13 -6 -15 -9 -4 -10 -6 -1 -6 17 -1 25 16 12 25
-7 4 -9 3 -5 -4z"/>
<path d="M18275 7780 c3 -5 8 -10 11 -10 2 0 4 5 4 10 0 6 -5 10 -11 10 -5 0
-7 -4 -4 -10z"/>
<path d="M5140 7604 c0 -8 5 -12 10 -9 6 4 8 11 5 16 -9 14 -15 11 -15 -7z"/>
<path d="M18675 7581 c-3 -5 -2 -12 3 -15 5 -3 9 1 9 9 0 17 -3 19 -12 6z"/>
<path d="M4533 7375 c0 -8 4 -12 9 -9 5 3 6 10 3 15 -9 13 -12 11 -12 -6z"/>
<path d="M19450 7211 c0 -6 4 -13 10 -16 6 -3 7 1 4 9 -7 18 -14 21 -14 7z"/>
<path d="M19505 7190 c-3 -6 1 -7 9 -4 18 7 21 14 7 14 -6 0 -13 -4 -16 -10z"/>
<path d="M19927 7029 c7 -7 15 -10 18 -7 3 3 -2 9 -12 12 -14 6 -15 5 -6 -5z"/>
<path d="M19984 7008 c3 -15 26 -23 26 -8 0 6 -4 9 -9 6 -5 -4 -12 -1 -14 4
-3 6 -4 5 -3 -2z"/>
<path d="M3630 6971 c0 -6 4 -12 8 -15 5 -3 9 1 9 9 0 8 -4 15 -9 15 -4 0 -8
-4 -8 -9z"/>
</g>
</svg>
