<?xml version="1.0" standalone="no"?>
<!DOCTYPE svg PUBLIC "-//W3C//DTD SVG 20010904//EN"
 "http://www.w3.org/TR/2001/REC-SVG-20010904/DTD/svg10.dtd">
<svg version="1.0" xmlns="http://www.w3.org/2000/svg"
 width="377.000000pt" height="377.000000pt" viewBox="0 0 377.000000 377.000000"
 preserveAspectRatio="xMidYMid meet">
<metadata>
Created by potrace 1.11, written by Peter Selinger 2001-2013
</metadata>
<g transform="translate(0.000000,377.000000) scale(0.100000,-0.100000)"
fill="#000000" stroke="none">
<path d="M1485 3293 c-440 -256 -825 -481 -855 -498 -92 -54 -305 -177 -307
-179 -3 -2 31 -61 305 -530 122 -208 222 -383 222 -387 0 -5 5 -9 10 -9 6 0
10 -4 10 -9 0 -5 59 -109 130 -231 72 -122 141 -241 154 -264 38 -67 309 -531
313 -535 4 -5 14 0 184 100 64 38 123 71 131 74 14 6 39 -32 187 -289 13 -23
48 -84 79 -136 31 -52 65 -110 75 -129 10 -19 38 -66 61 -105 24 -39 53 -90
66 -114 13 -23 26 -42 30 -42 3 0 22 11 42 25 20 14 39 25 42 25 10 0 176 102
176 109 0 4 -4 11 -9 16 -5 6 -20 30 -33 55 -14 25 -116 200 -227 389 -110
189 -201 349 -201 355 0 10 565 347 594 354 6 1 22 -17 34 -40 12 -24 26 -50
32 -58 9 -13 226 -386 254 -435 7 -11 27 -46 45 -78 l33 -58 32 19 c17 10 77
44 133 77 56 32 100 61 99 64 -2 3 -43 74 -91 156 -102 173 -147 252 -183 315
-14 25 -33 57 -43 72 -11 14 -19 29 -19 33 0 3 -13 26 -29 49 l-30 43 117 69
c64 38 129 76 143 84 15 8 77 44 138 79 l110 65 -18 30 c-64 106 -1106 1895
-1114 1914 -6 12 -13 22 -16 22 -4 0 -366 -210 -806 -467z"/>
</g>
</svg>
